<?xml version="1.0" standalone="no"?>
<!DOCTYPE svg PUBLIC "-//W3C//DTD SVG 20010904//EN"
 "http://www.w3.org/TR/2001/REC-SVG-20010904/DTD/svg10.dtd">
<svg version="1.0" xmlns="http://www.w3.org/2000/svg"
 width="640.000000pt" height="640.000000pt" viewBox="0 0 640.000000 640.000000"
 preserveAspectRatio="xMidYMid meet">
<metadata>
Created by potrace 1.11, written by Peter Selinger 2001-2013
</metadata>
<g transform="translate(0.000000,640.000000) scale(0.100000,-0.100000)"
fill="#000000" stroke="none">
<path d="M5745 6388 c-3 -7 -6 -278 -8 -603 -2 -581 -2 -590 -22 -594 -11 -2
-23 -8 -27 -15 -4 -6 -5 -129 -3 -273 4 -172 2 -264 -5 -268 -7 -4 -10 -122
-10 -333 1 -180 -2 -347 -6 -370 -6 -36 -10 -43 -28 -40 -11 2 -30 -5 -40 -14
-14 -13 -22 -15 -27 -7 -4 8 -20 9 -43 5 -27 -5 -42 -2 -63 13 -39 27 -75 37
-67 18 3 -8 1 -18 -5 -21 -6 -4 -7 -14 -4 -23 5 -13 2 -15 -15 -11 -12 4 -22
2 -22 -4 0 -6 -11 -8 -25 -6 -14 3 -25 1 -25 -3 0 -10 -9 -12 -233 -55 -91
-17 -124 -32 -56 -26 37 4 39 3 31 -18 -7 -19 -17 -22 -75 -26 -82 -6 -135
-21 -72 -21 79 0 119 -28 43 -29 -24 -1 -55 -5 -70 -9 -25 -7 -26 -5 -25 29 1
32 4 36 28 36 25 0 53 19 32 21 -4 0 -21 3 -37 5 -16 3 -43 0 -59 -7 -26 -11
-28 -13 -10 -20 13 -5 19 -16 18 -35 0 -25 -5 -29 -40 -36 -22 -4 -91 -10
-154 -13 l-114 -7 6 90 c4 72 3 93 -9 103 -9 7 -14 30 -14 60 0 37 -4 49 -15
49 -11 0 -15 -11 -15 -38 0 -53 -19 -76 -63 -74 -20 1 -39 -3 -42 -8 -8 -13
-71 -13 -97 1 -13 7 -23 7 -27 2 -3 -6 -17 -13 -31 -16 -14 -3 -37 -9 -51 -12
-22 -6 -27 -3 -33 17 l-7 23 -9 -22 c-6 -14 -18 -23 -32 -23 -13 0 -30 -4 -37
-9 -20 -13 -51 5 -51 29 0 11 -4 20 -10 20 -5 0 -10 -13 -10 -30 0 -27 -3 -30
-34 -30 -50 0 -66 9 -66 36 0 13 -4 24 -10 24 -5 0 -10 -11 -10 -24 0 -33 -13
-39 -61 -31 -37 6 -40 9 -35 31 5 17 1 26 -15 34 -27 15 -34 7 -18 -18 16 -26
-2 -52 -37 -52 -13 0 -24 -4 -24 -9 0 -5 70 -9 156 -9 85 0 156 -1 158 -3 2
-2 -1 -19 -6 -37 -8 -29 -11 -32 -24 -21 -14 12 -14 14 3 20 17 7 17 8 0 8
-10 1 -15 6 -12 11 9 14 -19 12 -34 -2 -11 -10 -14 -10 -18 0 -8 21 -23 13
-23 -13 0 -19 -5 -25 -22 -26 -78 -3 -123 -11 -130 -22 -6 -9 -8 -9 -8 1 0 7
-5 10 -11 7 -13 -8 28 -55 47 -55 7 0 19 -10 25 -22 l12 -23 10 28 c10 31 17
33 58 12 25 -13 30 -13 35 -2 3 9 14 12 30 9 18 -3 24 -11 24 -29 0 -21 -3
-24 -27 -19 -38 7 -121 -15 -115 -32 2 -7 -5 -12 -17 -12 -37 0 -32 -19 6 -25
71 -12 123 -35 123 -56 0 -23 16 -25 24 -3 6 14 9 13 27 -7 15 -17 17 -25 7
-28 -7 -2 -16 -9 -20 -15 -3 -6 -29 -10 -60 -8 -29 1 -63 3 -75 3 -13 1 -23 5
-23 10 0 4 -7 6 -15 3 -8 -4 -15 -12 -15 -20 0 -8 -7 -14 -15 -14 -8 0 -15 -4
-15 -10 0 -5 11 -10 25 -10 14 0 28 -6 31 -14 3 -9 22 -14 52 -14 41 -1 45 1
30 12 -10 7 -18 16 -18 19 0 11 31 15 59 7 21 -6 31 -5 35 3 2 7 5 6 5 -3 1
-22 -11 -37 -34 -42 -11 -2 -19 -9 -18 -16 2 -8 -17 -11 -62 -11 -36 1 -62 5
-59 10 3 5 -6 9 -20 9 -14 0 -30 8 -35 18 -7 11 -10 13 -11 3 0 -11 -3 -11
-17 0 -12 11 -17 11 -20 2 -3 -7 -20 -15 -39 -19 -41 -8 -43 -24 -8 -63 14
-16 25 -32 24 -36 -3 -13 44 -45 59 -41 9 3 25 -1 36 -10 16 -12 18 -18 7 -34
-6 -11 -12 -21 -12 -22 0 -2 21 -4 48 -5 26 -2 82 -13 125 -25 l78 -22 -3 -36
c-3 -39 -18 -44 -78 -25 -19 6 -51 8 -70 5 -19 -3 -55 0 -80 7 -25 7 -87 18
-138 24 -51 5 -114 17 -140 24 -26 8 -60 15 -77 16 -25 1 -21 4 20 14 28 7 42
14 33 14 -10 1 -26 17 -36 39 -11 24 -24 37 -37 37 -27 1 -45 13 -45 32 0 24
-47 75 -53 58 -4 -8 -14 -11 -26 -8 -12 3 -19 9 -16 13 9 14 -20 61 -42 66
-13 4 -23 10 -23 15 0 5 -8 18 -17 29 -13 14 -19 16 -25 7 -5 -8 -8 -4 -8 11
0 13 -5 32 -11 43 -8 16 -13 18 -25 8 -8 -6 -12 -19 -9 -28 2 -9 0 -22 -4 -30
-8 -12 -12 -12 -25 -2 -11 9 -16 10 -16 2 0 -20 -27 -12 -33 10 -3 13 0 22 10
26 11 4 12 8 3 13 -7 4 -14 18 -15 31 -1 13 -3 30 -4 37 -2 21 -19 13 -25 -13
-4 -14 -13 -25 -20 -25 -16 0 -28 -38 -18 -54 3 -6 7 -28 7 -49 1 -22 7 -42
15 -47 11 -7 9 -11 -10 -18 -25 -9 -25 -9 8 -17 19 -4 38 -2 45 4 9 7 26 6 57
-3 27 -8 39 -16 30 -19 -30 -10 -78 -16 -84 -10 -9 10 -335 12 -341 3 -8 -12
36 -19 175 -26 144 -7 200 -25 75 -23 -138 1 -199 -1 -193 -6 14 -14 180 -33
210 -24 34 9 56 -1 44 -20 -10 -16 -46 -14 -192 9 -71 12 -157 25 -192 31 -65
9 -96 4 -71 -12 12 -8 12 -10 0 -18 -9 -6 -10 -11 -2 -15 6 -4 11 -20 11 -35
0 -16 6 -46 14 -68 18 -51 15 -138 -5 -138 -9 0 -15 -13 -17 -33 -2 -18 -8
-30 -13 -27 -21 14 -49 -7 -57 -43 -10 -40 -9 -138 1 -148 3 -3 3 -11 1 -18
-3 -7 5 -18 18 -24 23 -12 23 -12 -2 -6 -14 4 -32 9 -40 12 -8 2 -1 -8 15 -22
29 -26 29 -27 5 -20 -52 15 -120 49 -116 60 2 6 0 17 -5 25 -8 12 -10 12 -19
-1 -8 -12 -13 -13 -30 -2 -11 6 -27 12 -36 12 -8 0 -36 14 -61 31 -25 17 -66
37 -92 44 -25 7 -73 29 -106 49 -33 20 -66 36 -73 36 -7 0 -23 7 -37 16 -31
20 -31 86 1 112 23 19 47 69 39 82 -3 5 -6 32 -7 61 0 40 4 55 17 65 14 10 22
11 32 3 21 -18 45 52 41 122 -1 31 0 60 3 64 10 10 -1 43 -17 49 -18 7 -19
-30 -1 -37 9 -4 9 -8 0 -14 -6 -5 -11 -15 -10 -23 1 -8 -4 -41 -12 -73 -13
-50 -17 -57 -35 -51 -11 4 -36 7 -55 8 -29 1 -35 -2 -33 -17 2 -9 -4 -20 -12
-23 -14 -5 -14 -8 1 -22 18 -19 3 -29 -25 -16 -9 4 -20 7 -24 6 -9 -2 -22 107
-14 115 3 4 6 -1 6 -9 0 -9 7 -18 15 -22 8 -3 15 -15 15 -26 0 -12 4 -19 9
-16 4 3 8 34 7 68 l-1 63 -48 9 -47 9 0 43 c0 33 -5 46 -19 54 -25 13 -33 1
-33 -46 0 -19 -3 -36 -8 -39 -4 -2 -3 -27 3 -55 6 -33 6 -61 0 -83 l-10 -32
-9 33 c-5 17 -13 31 -18 30 -12 -4 -27 39 -20 57 4 8 2 15 -4 15 -5 0 -7 11
-4 25 4 21 0 25 -18 25 -32 0 -100 22 -100 32 0 4 23 8 50 8 36 0 52 -4 56
-15 7 -17 40 -20 49 -6 8 14 -20 27 -88 41 -57 11 -58 12 -56 43 1 18 -3 45
-10 60 -6 16 -11 50 -11 77 0 27 -4 52 -10 55 -6 4 -10 -16 -10 -52 0 -32 -4
-63 -8 -70 -4 -6 -27 -13 -52 -16 -25 -3 -53 -9 -64 -13 -22 -8 -36 10 -36 49
0 15 -4 27 -10 27 -5 0 -10 -19 -10 -43 0 -24 -3 -47 -7 -51 -10 -10 -12 -50
-2 -62 12 -14 -1 -86 -15 -81 -6 2 -12 22 -14 45 -4 56 -26 55 -48 -3 -16 -44
-44 -60 -59 -35 -3 6 -16 10 -28 11 -14 0 -17 2 -7 6 8 2 31 12 50 21 29 14
32 17 14 20 -36 5 -119 -31 -122 -54 -4 -25 74 -99 178 -171 25 -16 63 -40 85
-52 22 -12 56 -31 75 -43 63 -38 394 -211 445 -233 28 -12 165 -78 305 -147
338 -167 751 -368 755 -368 3 0 302 -145 625 -302 102 -50 235 -114 295 -143
61 -29 178 -85 260 -125 83 -40 229 -110 325 -155 793 -375 1436 -688 1475
-719 30 -24 -37 6 -405 182 -179 85 -422 201 -540 257 -118 56 -377 179 -575
273 -198 93 -540 256 -760 362 -220 105 -444 212 -499 237 -54 25 -147 69
-205 98 -58 29 -162 78 -231 110 -182 83 -247 114 -421 199 -161 79 -206 94
-154 51 17 -13 25 -24 18 -25 -6 0 -14 4 -17 9 -3 5 -17 11 -32 14 -23 4 -25
2 -19 -17 4 -11 10 -40 12 -63 4 -37 2 -43 -13 -43 -18 -1 -18 -1 0 -15 11 -8
15 -15 9 -15 -6 0 -13 -13 -15 -29 -4 -30 20 -71 43 -71 8 0 5 -8 -7 -21 -18
-20 -18 -21 -1 -30 10 -6 15 -14 12 -20 -4 -5 6 -9 20 -9 14 0 24 4 20 9 -3 6
3 15 14 21 15 8 20 18 17 40 -2 19 2 31 13 35 13 5 14 7 1 15 -13 8 -13 10 1
10 19 0 33 27 17 32 -8 3 -7 10 1 26 13 25 41 30 41 7 0 -8 7 -15 16 -15 14 0
14 -3 3 -16 -9 -11 -9 -18 -2 -22 6 -4 13 -35 16 -69 4 -52 2 -63 -12 -66 -14
-4 -14 -5 2 -6 10 -1 17 -9 17 -21 0 -13 7 -20 19 -20 31 0 34 -18 4 -23 -20
-3 -16 -4 14 -6 40 -1 43 1 51 31 8 32 45 55 41 26 -4 -29 2 -38 24 -39 20 0
21 -1 3 -8 -19 -7 -18 -8 4 -14 19 -5 22 -9 13 -18 -6 -6 -9 -17 -7 -24 3 -7
-8 -15 -28 -20 -32 -8 -31 -9 22 -14 l55 -6 -35 -10 c-19 -5 -41 -8 -48 -6 -6
1 -12 -3 -12 -9 0 -5 22 -10 50 -10 93 0 45 -28 -54 -31 l-41 -2 45 -8 c25 -4
71 -8 103 -8 36 -1 56 -5 52 -11 -3 -5 -33 -10 -65 -10 -32 0 -61 -4 -64 -9
-6 -9 72 -21 137 -21 20 0 37 -4 37 -10 0 -6 -36 -10 -87 -10 -104 0 -96 -15
14 -25 84 -8 88 -25 7 -25 -30 0 -53 -4 -50 -9 5 -8 113 -25 163 -26 11 0 25
-3 29 -7 8 -8 -47 -13 -106 -9 -28 2 -32 0 -23 -10 14 -14 87 -28 155 -28 26
-1 50 -6 54 -12 4 -7 -17 -10 -69 -7 -52 2 -73 0 -70 -8 7 -18 51 -34 93 -34
51 0 61 -18 13 -22 l-38 -3 27 -18 c23 -16 43 -23 70 -26 4 -1 5 -7 2 -15 -3
-8 9 -23 32 -37 33 -20 53 -23 173 -27 75 -2 141 -9 146 -14 6 -6 -37 -8 -123
-6 -72 2 -132 0 -132 -4 0 -3 15 -15 33 -26 40 -24 108 -32 301 -33 103 -1
144 -4 132 -11 -10 -6 -91 -8 -192 -6 l-175 3 31 -27 c21 -19 41 -28 65 -28
19 0 35 -4 35 -10 0 -5 -4 -10 -10 -10 -41 0 69 -81 111 -82 21 -1 26 -4 19
-13 -7 -8 -1 -19 18 -37 33 -31 77 -59 88 -57 5 1 18 1 29 0 17 -1 18 -3 5
-11 -12 -9 -7 -17 30 -50 25 -22 52 -42 61 -45 9 -3 36 -24 59 -46 24 -23 67
-56 96 -75 29 -18 54 -37 56 -42 1 -4 40 -36 84 -70 45 -33 88 -67 95 -74 8
-8 50 -40 94 -73 44 -33 123 -94 175 -136 52 -41 107 -84 121 -94 15 -11 75
-58 135 -105 59 -47 118 -92 130 -100 12 -8 111 -85 221 -170 109 -85 217
-169 241 -187 l42 -33 725 0 725 0 0 1531 c0 1322 -2 1530 -14 1526 -8 -3 -20
1 -27 9 -10 13 -10 17 1 24 9 5 20 5 27 -2 11 -8 13 73 13 431 0 242 -2 441
-4 441 -3 0 -12 -7 -20 -16 -14 -13 -16 -13 -16 -1 0 9 6 18 13 20 6 3 3 6 -8
7 -17 2 -16 3 5 9 l25 7 3 173 2 174 -52 -7 c-29 -4 -55 -11 -58 -16 -8 -12
-4 -169 4 -177 6 -7 -12 -33 -24 -33 -4 0 -5 38 -3 85 4 81 -3 105 -24 73 -10
-18 -12 -208 -1 -214 5 -3 6 -14 3 -25 -4 -13 -2 -19 9 -19 9 0 16 9 16 20 0
11 5 20 10 20 6 0 10 -40 10 -101 0 -64 -4 -98 -10 -94 -5 3 -10 12 -10 20 0
7 -5 15 -11 17 -8 3 -8 11 2 27 12 21 12 24 -5 35 -11 6 -27 19 -37 28 -21 20
-61 27 -66 12 -2 -7 8 -14 22 -18 31 -8 32 -22 3 -30 -35 -9 -38 -8 -38 13 0
11 -4 23 -10 26 -9 6 -15 -38 -11 -74 2 -7 -3 -10 -9 -6 -6 4 -11 30 -12 58
-8 770 -6 957 8 957 8 0 14 5 14 10 0 6 -7 10 -15 10 -23 0 -20 67 3 73 16 4
16 5 -1 6 -16 1 -18 9 -15 69 2 47 7 66 16 65 6 -2 12 4 12 13 0 10 -6 14 -15
10 -12 -4 -15 3 -15 31 0 30 2 34 15 23 11 -9 15 -9 15 -1 0 6 -7 14 -15 17
-11 5 -15 22 -15 66 0 55 2 60 20 55 16 -4 18 -1 13 24 l-5 29 55 0 c49 0 56
-2 59 -22 2 -12 9 -23 16 -26 10 -3 12 5 6 33 -5 30 -4 37 7 33 8 -3 16 -25
20 -54 7 -56 9 -41 15 101 2 50 5 99 5 110 1 11 0 177 -1 368 -2 191 0 350 3
354 4 3 13 0 21 -6 9 -8 27 -10 46 -6 28 6 30 9 30 56 l0 49 -139 0 -139 0 -6
-25 c-4 -14 -11 -25 -16 -25 -6 0 -10 11 -10 25 l0 25 -170 0 c-127 0 -172 -3
-175 -12z m528 -145 c-8 -49 -25 -40 -19 10 6 56 5 54 15 37 5 -8 6 -30 4 -47z
m-95 32 c-2 -5 -9 -9 -15 -9 -18 2 -16 -7 5 -22 16 -12 16 -14 0 -30 -9 -9
-23 -14 -32 -11 -21 8 -19 75 3 81 24 6 42 2 39 -9z m49 -20 c-1 -40 -14 -46
-26 -12 -10 26 -4 47 14 47 8 0 13 -13 12 -35z m-117 -25 c0 -22 -4 -40 -10
-40 -5 0 -10 18 -10 40 0 22 5 40 10 40 6 0 10 -18 10 -40z m100 -19 c0 -6 -4
-13 -10 -16 -5 -3 -10 1 -10 9 0 9 5 16 10 16 6 0 10 -4 10 -9z m-100 -58 c0
-5 -5 -15 -10 -23 -8 -12 -10 -11 -10 8 0 12 5 22 10 22 6 0 10 -3 10 -7z
m128 -2 c1 0 -2 -10 -8 -22 -7 -12 -8 -25 -2 -32 5 -7 7 -31 4 -54 -4 -42 -14
-54 -27 -33 -9 15 -25 12 -19 -4 3 -8 14 -16 25 -19 12 -3 17 -11 13 -20 -6
-17 -36 -11 -72 14 -18 13 -23 28 -27 80 -7 92 -4 96 58 94 28 -2 53 -3 55 -4z
m38 -89 c-3 -37 -5 -68 -5 -70 -1 -2 -5 -1 -9 2 -5 3 -8 36 -6 73 3 81 1 76
14 68 7 -4 9 -33 6 -73z m-168 -62 c-4 -91 -18 -91 -18 0 0 41 4 70 10 70 6 0
9 -28 8 -70z m167 -88 c-9 -9 -25 11 -25 32 0 37 14 40 22 4 3 -18 5 -34 3
-36z m-110 38 c20 -11 43 -20 51 -20 10 0 14 -8 12 -22 -2 -17 -9 -22 -23 -20
-11 2 -34 6 -52 9 -29 5 -32 8 -31 39 1 19 3 34 4 34 2 0 19 -9 39 -20z m-55
-59 c0 -6 -4 -13 -10 -16 -5 -3 -10 1 -10 9 0 9 5 16 10 16 6 0 10 -4 10 -9z
m165 -112 c0 -54 -3 -99 -7 -99 -17 0 -24 36 -17 93 4 34 5 65 3 69 -7 11 6
51 14 43 4 -4 7 -51 7 -106z m-44 69 c4 -115 3 -206 -3 -220 -5 -9 -4 -20 2
-23 6 -4 8 -16 4 -27 -3 -11 -6 -46 -6 -78 l0 -57 -55 -2 -56 -1 6 53 c4 33
13 58 26 68 18 15 18 15 -3 25 -20 8 -21 16 -22 141 l0 132 45 4 c25 2 49 4
54 5 4 1 7 -8 8 -20z m-121 -93 c0 -30 -4 -55 -10 -55 -5 0 -10 25 -10 55 0
30 5 55 10 55 6 0 10 -25 10 -55z m-8 -117 c-10 -22 -11 -21 -11 12 -1 26 2
31 11 22 8 -8 8 -17 0 -34z m176 -35 c-2 -20 -7 -38 -13 -40 -11 -3 -18 85 -8
100 10 17 24 -23 21 -60z m-168 -78 c0 -24 -4 -47 -10 -50 -6 -4 -10 15 -10
50 0 35 4 54 10 50 6 -3 10 -26 10 -50z m163 9 c3 -3 2 -16 -3 -28 -4 -13 -4
-29 1 -39 7 -11 6 -17 0 -17 -17 0 -28 29 -23 61 4 28 12 36 25 23z m-163 -99
c0 -8 -4 -15 -10 -15 -5 0 -10 7 -10 15 0 8 5 15 10 15 6 0 10 -7 10 -15z m-5
-35 c3 -5 1 -10 -4 -10 -6 0 -11 5 -11 10 0 6 2 10 4 10 3 0 8 -4 11 -10z
m185 -1320 c0 -5 -4 -10 -10 -10 -5 0 -10 5 -10 10 0 6 5 10 10 10 6 0 10 -4
10 -10z m-55 -160 c-4 -6 -10 -8 -15 -5 -5 3 -11 1 -15 -5 -4 -6 -11 -8 -16
-4 -16 9 1 24 27 24 15 0 23 -4 19 -10z m-75 -20 c0 -5 -4 -10 -10 -10 -5 0
-10 5 -10 10 0 6 5 10 10 10 6 0 10 -4 10 -10z m-40 -61 c0 -22 -4 -38 -8 -35
-12 7 -14 76 -2 76 5 0 10 -18 10 -41z m-837 -79 c-4 -30 -1 -45 11 -59 16
-17 16 -19 -1 -26 -22 -10 -223 -12 -229 -3 -2 3 -1 13 2 22 5 12 10 14 19 6
7 -5 23 -10 36 -9 13 1 52 -2 87 -6 54 -7 62 -6 62 9 0 9 -3 16 -7 16 -5 0
-37 5 -73 11 -36 6 -77 11 -92 11 -16 1 -29 5 -29 10 -6 30 0 33 81 44 145 19
139 20 133 -26z m1007 -11 c0 -11 -4 -17 -10 -14 -5 3 -10 13 -10 21 0 8 5 14
10 14 6 0 10 -9 10 -21z m-2192 -34 c-11 -24 -48 -36 -48 -16 0 5 -3 16 -6 25
-5 13 1 16 30 16 34 0 35 -1 24 -25z m182 -15 c0 -5 -4 -10 -10 -10 -5 0 -10
5 -10 10 0 6 5 10 10 10 6 0 10 -4 10 -10z m2010 -9 c0 -20 -17 -37 -27 -28
-7 8 7 47 18 47 5 0 9 -9 9 -19z m-171 -23 c0 -28 -2 -30 -9 -13 -12 28 -12
45 0 45 6 0 10 -15 9 -32z m-1085 1 c-3 -5 -10 -7 -15 -3 -5 3 -7 10 -3 15 3
5 10 7 15 3 5 -3 7 -10 3 -15z m1121 1 c3 -5 -1 -10 -9 -10 -9 0 -16 5 -16 10
0 6 4 10 9 10 6 0 13 -4 16 -10z m-38 -107 c-2 -16 -4 -5 -4 22 0 28 2 40 4
28 2 -13 2 -35 0 -50z m-1570 25 c-5 -32 -27 -35 -27 -4 0 16 6 26 15 26 10 0
14 -8 12 -22z m47 7 c-4 -8 -8 -15 -10 -15 -2 0 -4 7 -4 15 0 8 4 15 10 15 5
0 7 -7 4 -15z m-634 -10 c0 -8 -4 -15 -10 -15 -5 0 -10 7 -10 15 0 8 5 15 10
15 6 0 10 -7 10 -15z m830 -20 c0 -8 -6 -15 -14 -15 -17 0 -28 14 -19 24 12
12 33 6 33 -9z m-30 -85 c0 -5 -4 -10 -10 -10 -5 0 -10 5 -10 10 0 6 5 10 10
10 6 0 10 -4 10 -10z m-3450 -15 c0 -8 -5 -15 -11 -15 -8 0 -7 -5 1 -15 14
-17 8 -31 -9 -20 -17 10 -14 65 4 65 8 0 15 -7 15 -15z m4976 -12 c-10 -10
-19 5 -10 18 6 11 8 11 12 0 2 -7 1 -15 -2 -18z m-2247 -30 c6 -10 11 -12 11
-5 0 17 20 15 20 -3 0 -10 -10 -15 -30 -15 -23 0 -30 4 -30 20 0 25 16 26 29
3z m2079 -55 c-1 -69 -1 -70 -7 -23 -3 28 -4 60 -2 73 7 43 11 21 9 -50z
m-4740 40 c-6 -18 -28 -21 -28 -4 0 9 7 16 16 16 9 0 14 -5 12 -12z m42 -20
c0 -19 -2 -20 -10 -8 -13 19 -13 30 0 30 6 0 10 -10 10 -22z m-50 -71 c0 -23
-4 -36 -10 -32 -5 3 -10 27 -10 53 0 34 3 43 10 32 5 -8 10 -32 10 -53z m1660
3 c0 -23 -35 -28 -43 -6 -7 18 1 26 25 26 11 0 18 -7 18 -20z m930 10 c0 -5
-2 -10 -4 -10 -3 0 -8 5 -11 10 -3 6 -1 10 4 10 6 0 11 -4 11 -10z m130 -5 c0
-25 -4 -28 -37 -31 -35 -3 -43 12 -21 34 17 17 58 15 58 -3z m327 -1 c-3 -3
-12 -4 -19 -1 -8 3 -5 6 6 6 11 1 17 -2 13 -5z m-266 -17 c-1 -12 -15 -9 -19
4 -3 6 1 10 8 8 6 -3 11 -8 11 -12z m519 -12 c0 -8 -4 -15 -10 -15 -5 0 -10
-7 -10 -15 0 -8 6 -12 13 -9 7 2 24 1 37 -4 23 -9 23 -9 -8 -15 -26 -5 -31
-11 -34 -39 l-4 -33 -10 35 c-10 35 -11 35 -69 35 -38 0 -60 4 -62 13 -4 11
43 18 85 13 7 -1 22 9 33 23 23 29 39 34 39 11z m-2910 -5 c0 -5 -2 -10 -4
-10 -3 0 -8 5 -11 10 -3 6 -1 10 4 10 6 0 11 -4 11 -10z m1407 -33 c3 -4 -8
-7 -25 -7 -17 0 -34 4 -37 10 -7 11 51 8 62 -3z m2403 4 c0 -12 -30 -22 -43
-14 -7 4 -3 9 9 14 26 10 34 10 34 0z m80 -1 c0 -5 -7 -10 -16 -10 -8 0 -12 5
-9 10 3 6 10 10 16 10 5 0 9 -4 9 -10z m490 6 c0 -2 -7 -9 -15 -16 -12 -10
-15 -10 -15 4 0 9 7 16 15 16 8 0 15 -2 15 -4z m117 -2 c-3 -3 -12 -4 -19 -1
-8 3 -5 6 6 6 11 1 17 -2 13 -5z m40 0 c-3 -3 -12 -4 -19 -1 -8 3 -5 6 6 6 11
1 17 -2 13 -5z m-2334 -24 c10 -9 -66 -22 -86 -14 -8 3 -18 1 -22 -5 -13 -23
-165 -7 -165 17 0 12 10 14 48 10 26 -3 61 -1 77 3 34 8 136 1 148 -11z m217
2 c0 -8 -15 -11 -47 -10 -27 1 -57 -1 -68 -5 -26 -9 -56 9 -37 22 22 13 152 8
152 -7z m267 2 c2 -6 -13 -11 -38 -12 -42 -2 -68 -21 -69 -51 0 -10 3 -11 13
-2 18 14 30 2 16 -15 -8 -10 -16 -10 -35 -2 -24 11 -32 42 -14 53 18 11 0 25
-33 27 -23 1 -18 3 18 8 73 9 138 7 142 -6z m408 6 c14 -6 -3 -8 -50 -8 -60 1
-64 2 -30 8 55 10 57 10 80 0z m280 0 c-3 -5 -13 -10 -21 -10 -8 0 -14 5 -14
10 0 6 9 10 21 10 11 0 17 -4 14 -10z m335 0 c0 -5 -5 -10 -11 -10 -5 0 -7 5
-4 10 3 6 8 10 11 10 2 0 4 -4 4 -10z m-4140 -10 c0 -5 -5 -10 -11 -10 -5 0
-7 5 -4 10 3 6 8 10 11 10 2 0 4 -4 4 -10z m3597 4 c-3 -3 -12 -4 -19 -1 -8 3
-5 6 6 6 11 1 17 -2 13 -5z m80 0 c-3 -3 -12 -4 -19 -1 -8 3 -5 6 6 6 11 1 17
-2 13 -5z m650 -20 c-3 -3 -12 -4 -19 -1 -8 3 -5 6 6 6 11 1 17 -2 13 -5z
m-2608 -20 c2 -2 -12 -4 -32 -4 -20 0 -37 4 -37 10 0 8 58 3 69 -6z m896 -34
c23 -25 20 -28 -32 -22 -39 4 -40 5 -25 22 22 24 35 24 57 0z m905 4 c0 -11 6
-14 21 -9 21 7 21 7 3 -25 -25 -41 -40 -54 -56 -44 -7 5 -15 9 -18 9 -32 4
-47 18 -43 38 9 36 23 47 59 47 24 0 34 -5 34 -16z m810 -4 c0 -5 -11 -10 -25
-10 -14 0 -25 5 -25 10 0 6 11 10 25 10 14 0 25 -4 25 -10z m-1395 -20 c3 -11
11 -20 16 -20 6 0 7 -5 4 -11 -8 -11 -45 22 -45 41 0 18 18 11 25 -10z m285
10 c0 -5 -4 -10 -10 -10 -5 0 -10 5 -10 10 0 6 5 10 10 10 6 0 10 -4 10 -10z
m-220 -9 c0 -6 -4 -13 -10 -16 -5 -3 -10 1 -10 9 0 9 5 16 10 16 6 0 10 -4 10
-9z m270 -6 c0 -8 -4 -15 -9 -15 -13 0 -22 16 -14 24 11 11 23 6 23 -9z m790
0 c0 -8 -4 -15 -10 -15 -5 0 -10 7 -10 15 0 8 5 15 10 15 6 0 10 -7 10 -15z
m80 -6 c0 -24 -23 -21 -28 4 -2 10 3 17 12 17 10 0 16 -9 16 -21z m-2450 -5
c0 -2 -12 -4 -27 -4 -21 0 -24 3 -14 9 13 8 41 5 41 -5z m2230 6 c0 -5 -4 -10
-9 -10 -6 0 -13 5 -16 10 -3 6 1 10 9 10 9 0 16 -4 16 -10z m-1090 -9 c0 -6
-4 -12 -8 -15 -5 -3 -9 1 -9 9 0 8 4 15 9 15 4 0 8 -4 8 -9z m1495 -1 c3 -5 1
-10 -4 -10 -6 0 -11 5 -11 10 0 6 2 10 4 10 3 0 8 -4 11 -10z m-2588 -6 c-3
-3 -12 -4 -19 -1 -8 3 -5 6 6 6 11 1 17 -2 13 -5z m1033 -13 c0 -6 -4 -13 -10
-16 -5 -3 -10 -11 -10 -16 0 -6 4 -8 9 -5 12 8 41 -3 41 -15 0 -5 -25 -9 -55
-9 -30 0 -55 4 -55 9 0 17 45 61 63 61 9 0 17 -4 17 -9z m280 -11 c8 -5 11
-12 7 -16 -4 -4 -15 0 -24 9 -18 18 -8 23 17 7z m266 -11 c3 -6 1 -16 -5 -22
-9 -9 -14 -8 -21 3 -9 15 -4 30 10 30 5 0 12 -5 16 -11z m1594 -4 c0 -8 -4
-15 -9 -15 -13 0 -22 16 -14 24 11 11 23 6 23 -9z m-1942 -7 c5 -8 6 -22 1
-33 -4 -11 -8 -14 -8 -7 -1 6 -8 12 -16 12 -15 0 -21 21 -8 33 10 10 19 8 31
-5z m272 2 c0 -5 -7 -10 -15 -10 -8 0 -15 5 -15 10 0 6 7 10 15 10 8 0 15 -4
15 -10z m135 -21 c4 -6 5 -12 2 -15 -7 -7 -37 7 -37 17 0 13 27 11 35 -2z
m1470 1 c3 -5 -1 -10 -10 -10 -9 0 -13 5 -10 10 3 6 8 10 10 10 2 0 7 -4 10
-10z m-3054 -52 c24 -28 81 -89 125 -134 66 -68 84 -81 93 -70 7 8 20 16 31
19 17 4 19 -1 17 -52 -2 -52 0 -56 21 -59 13 -2 26 -10 29 -18 3 -8 12 -14 19
-14 8 0 18 -10 23 -22 5 -13 19 -31 30 -40 30 -26 26 -41 -24 -91 -25 -25 -45
-50 -45 -56 0 -6 -4 -11 -9 -11 -6 0 -18 -14 -28 -30 -27 -46 -52 -49 -85 -10
-24 30 -30 32 -51 23 -32 -15 -51 -2 -45 31 6 30 -10 46 -23 25 -6 -10 -9 -8
-9 9 0 12 -7 25 -15 28 -8 4 -18 23 -21 44 -4 25 -11 37 -19 34 -22 -9 -47 26
-40 55 23 88 -3 137 -29 54 -11 -37 -15 -42 -17 -23 -1 14 -2 33 -1 43 1 12
-6 17 -23 17 -20 0 -25 6 -31 38 -5 24 -19 48 -43 70 -30 27 -33 35 -21 42 12
8 10 9 -7 7 -25 -4 -38 -13 -38 -30 -1 -18 55 -66 69 -61 9 3 13 -7 14 -32 1
-20 4 -39 7 -42 3 -3 -1 -12 -7 -20 -10 -11 -9 -16 4 -23 14 -8 15 -15 6 -42
-14 -41 -28 -57 -28 -31 0 30 -124 104 -175 104 -20 0 -23 7 -29 55 -7 60 5
98 28 89 17 -6 31 12 16 21 -17 11 23 43 63 50 21 4 37 13 37 21 0 20 41 44
65 38 14 -3 28 3 45 20 38 42 70 35 121 -26z m939 8 c0 -2 -3 -11 -6 -20 -5
-13 -8 -13 -20 -1 -19 19 -18 25 6 25 11 0 20 -2 20 -4z m87 -8 c-17 -11 -57
-10 -57 1 0 5 16 9 35 8 21 -1 30 -4 22 -9z m1046 -5 c-7 -2 -19 -2 -25 0 -7
3 -2 5 12 5 14 0 19 -2 13 -5z m274 1 c-3 -3 -12 -4 -19 -1 -8 3 -5 6 6 6 11
1 17 -2 13 -5z m-1250 -70 c-3 -3 -12 -4 -19 -1 -8 3 -5 6 6 6 11 1 17 -2 13
-5z m428 -14 c-3 -5 -10 -10 -16 -10 -5 0 -9 5 -9 10 0 6 7 10 16 10 8 0 12
-4 9 -10z m1095 -11 c0 -11 -4 -17 -10 -14 -5 3 -10 13 -10 21 0 8 5 14 10 14
6 0 10 -9 10 -21z m-2077 -50 c3 -12 10 -18 15 -15 11 7 26 -10 35 -39 6 -18
5 -17 -9 3 -9 12 -27 22 -39 22 -21 0 -41 31 -27 44 11 11 20 6 25 -15z m2107
-19 c0 -5 -4 -10 -10 -10 -5 0 -10 5 -10 10 0 6 5 10 10 10 6 0 10 -4 10 -10z
m-3050 -45 c0 -8 -9 -15 -20 -15 -20 0 -26 11 -13 23 12 13 33 7 33 -8z m2953
-45 c7 -26 -8 -33 -48 -22 -35 10 -41 37 -8 37 12 0 25 4 29 8 10 10 21 0 27
-23z m94 -15 c9 -25 -4 -29 -17 -6 -7 15 -7 21 0 21 6 0 13 -7 17 -15z m-1951
-37 c3 -11 4 -22 1 -25 -12 -11 -45 9 -49 31 -4 19 -1 22 18 18 13 -2 26 -13
30 -24z m-1640 -94 c19 -9 36 -20 39 -23 8 -15 -52 1 -75 20 -31 23 -10 25 36
3z m184 -104 c-19 -13 -30 -13 -30 0 0 6 10 10 23 10 18 0 19 -2 7 -10z m681
-33 c-1 -12 -15 -9 -19 4 -3 6 1 10 8 8 6 -3 11 -8 11 -12z m-706 -37 c3 -5 1
-10 -4 -10 -6 0 -11 5 -11 10 0 6 2 10 4 10 3 0 8 -4 11 -10z m896 -43 c-7 -7
-15 -6 -25 3 -22 17 -9 32 16 19 14 -8 17 -14 9 -22z m-140 -20 c-1 -12 -15
-9 -19 4 -3 6 1 10 8 8 6 -3 11 -8 11 -12z m179 -21 c0 -2 -7 -6 -15 -10 -8
-3 -15 -1 -15 4 0 6 7 10 15 10 8 0 15 -2 15 -4z m-165 -26 c3 -5 -1 -10 -9
-10 -9 0 -16 5 -16 10 0 6 4 10 9 10 6 0 13 -4 16 -10z m-500 -340 c3 -5 -1
-10 -10 -10 -9 0 -13 5 -10 10 3 6 8 10 10 10 2 0 7 -4 10 -10z m119 -46 c27
-10 9 -20 -28 -16 -20 2 -33 8 -30 13 6 10 35 12 58 3z m101 -64 c15 -7 9 -9
-25 -9 -33 -1 -41 2 -30 9 18 12 28 12 55 0z m90 -71 c-8 -11 -142 -12 -149 0
-3 4 -4 10 -2 12 9 9 156 -3 151 -12z m14 -60 c80 -1 91 -3 64 -11 -39 -13
-223 -1 -223 14 0 6 12 8 31 4 17 -3 75 -6 128 -7z m250 -238 c22 -14 -4 -22
-49 -15 -22 4 -43 11 -46 15 -7 12 77 11 95 0z m46 -101 c-3 -5 -10 -10 -16
-10 -5 0 -9 5 -9 10 0 6 7 10 16 10 8 0 12 -4 9 -10z m288 -107 c-18 -2 -48
-2 -65 0 -18 2 -4 4 32 4 36 0 50 -2 33 -4z"/>
<path d="M6190 6075 c-8 -9 -8 -15 -2 -15 12 0 26 19 19 26 -2 2 -10 -2 -17
-11z"/>
<path d="M6150 6040 c0 -5 5 -10 10 -10 6 0 10 5 10 10 0 6 -4 10 -10 10 -5 0
-10 -4 -10 -10z"/>
<path d="M6150 5800 c0 -5 5 -10 11 -10 5 0 7 5 4 10 -3 6 -8 10 -11 10 -2 0
-4 -4 -4 -10z"/>
<path d="M6190 5771 c0 -5 5 -13 10 -16 6 -3 10 -2 10 4 0 5 -4 13 -10 16 -5
3 -10 2 -10 -4z"/>
<path d="M6190 5710 c0 -5 7 -10 16 -10 8 0 12 5 9 10 -3 6 -10 10 -16 10 -5
0 -9 -4 -9 -10z"/>
<path d="M6195 5610 c-3 -5 -1 -10 4 -10 6 0 11 5 11 10 0 6 -2 10 -4 10 -3 0
-8 -4 -11 -10z"/>
<path d="M6195 5540 c3 -5 8 -10 11 -10 2 0 4 5 4 10 0 6 -5 10 -11 10 -5 0
-7 -4 -4 -10z"/>
<path d="M6182 5489 c2 -7 10 -15 17 -17 8 -3 12 1 9 9 -2 7 -10 15 -17 17 -8
3 -12 -1 -9 -9z"/>
<path d="M4065 3720 c3 -5 8 -10 11 -10 2 0 4 5 4 10 0 6 -5 10 -11 10 -5 0
-7 -4 -4 -10z"/>
<path d="M4830 3140 c0 -5 5 -10 10 -10 6 0 10 5 10 10 0 6 -4 10 -10 10 -5 0
-10 -4 -10 -10z"/>
<path d="M3060 2854 c0 -8 5 -12 10 -9 6 4 8 11 5 16 -9 14 -15 11 -15 -7z"/>
<path d="M2706 6241 c-4 -5 -2 -12 3 -15 5 -4 12 -2 15 3 4 5 2 12 -3 15 -5 4
-12 2 -15 -3z"/>
<path d="M2020 6189 c-13 -24 -4 -41 10 -19 10 16 13 40 5 40 -2 0 -9 -9 -15
-21z"/>
<path d="M1876 5871 c-4 -7 -5 -15 -2 -18 9 -9 19 4 14 18 -4 11 -6 11 -12 0z"/>
<path d="M6110 5305 c0 -15 4 -24 10 -20 6 3 10 12 10 20 0 8 -4 17 -10 20 -6
4 -10 -5 -10 -20z"/>
<path d="M6237 5323 c-11 -10 -8 -53 3 -53 6 0 10 14 10 30 0 31 -2 35 -13 23z"/>
<path d="M6276 5287 c-5 -15 -6 -31 -2 -34 11 -11 18 5 14 34 l-4 28 -8 -28z"/>
<path d="M6190 5260 c0 -5 5 -10 10 -10 6 0 10 5 10 10 0 6 -4 10 -10 10 -5 0
-10 -4 -10 -10z"/>
<path d="M6236 5200 c2 -73 3 -77 12 -63 11 18 9 106 -3 110 -6 2 -9 -18 -9
-47z"/>
<path d="M6280 5193 c0 -43 5 -41 13 5 4 18 2 32 -3 32 -6 0 -10 -16 -10 -37z"/>
<path d="M6282 5120 c0 -14 2 -19 5 -12 2 6 2 18 0 25 -3 6 -5 1 -5 -13z"/>
<path d="M6230 5065 c0 -14 5 -25 10 -25 6 0 10 11 10 25 0 14 -4 25 -10 25
-5 0 -10 -11 -10 -25z"/>
<path d="M6276 5062 c-5 -20 -4 -38 2 -44 13 -13 20 20 12 52 -6 24 -7 24 -14
-8z"/>
<path d="M1662 5055 c0 -16 2 -22 5 -12 2 9 2 23 0 30 -3 6 -5 -1 -5 -18z"/>
<path d="M6185 5030 c3 -5 11 -10 16 -10 6 0 7 5 4 10 -3 6 -11 10 -16 10 -6
0 -7 -4 -4 -10z"/>
<path d="M6235 5000 c4 -7 2 -16 -6 -22 -11 -7 -11 -11 -1 -15 6 -2 12 -16 12
-29 0 -13 4 -24 9 -24 15 0 7 93 -8 98 -9 3 -11 0 -6 -8z"/>
<path d="M6114 4981 c-2 -2 -4 -10 -4 -17 0 -8 13 -11 43 -7 60 8 67 20 12 25
-25 2 -48 1 -51 -1z"/>
<path d="M6282 4970 c0 -14 2 -19 5 -12 2 6 2 18 0 25 -3 6 -5 1 -5 -13z"/>
<path d="M550 4955 c0 -9 5 -15 11 -13 6 2 11 8 11 13 0 5 -5 11 -11 13 -6 2
-11 -4 -11 -13z"/>
<path d="M6275 4891 c-3 -5 -1 -12 5 -16 5 -3 10 1 10 9 0 18 -6 21 -15 7z"/>
<path d="M543 4803 l2 -48 -40 0 -40 0 -1 -98 c-1 -54 -5 -101 -9 -105 -4 -4
-108 -9 -231 -11 -137 -2 -224 -7 -224 -13 0 -6 83 -9 225 -7 123 2 228 0 232
-5 4 -4 9 -69 10 -144 1 -75 2 -145 2 -154 1 -14 10 -18 40 -18 43 0 63 -16
35 -27 -16 -6 -16 -7 1 -19 14 -11 15 -16 6 -28 -9 -10 -9 -20 0 -40 9 -19 9
-29 0 -40 -7 -8 -8 -17 -3 -20 11 -6 24 -208 16 -231 -3 -8 -15 -15 -25 -15
-19 0 -42 -15 -86 -57 -22 -21 -24 -29 -21 -110 l3 -88 38 -3 c20 -2 37 -7 37
-12 0 -4 9 -6 20 -3 21 6 20 7 24 -79 1 -15 4 -30 8 -33 4 -4 2 -18 -4 -31 -8
-17 -8 -27 0 -37 9 -10 8 -17 0 -25 -7 -7 -12 -24 -13 -39 0 -14 -6 -28 -13
-31 -13 -4 -18 64 -13 180 l3 56 -41 -5 c-53 -7 -78 2 -61 22 11 13 7 15 -26
17 -22 0 -45 1 -51 1 -7 -1 -13 3 -13 7 0 5 6 11 13 13 8 4 9 8 1 14 -6 4 -13
16 -17 26 -4 11 -17 17 -36 17 -23 0 -30 -5 -35 -25 -4 -14 -4 -30 -1 -36 4
-5 -1 -12 -9 -15 -9 -3 -16 -11 -16 -18 0 -8 -14 -10 -41 -8 -28 3 -44 0 -50
-9 -5 -9 -9 34 -10 106 -1 66 -4 170 -8 230 -6 109 -6 108 -14 -100 -5 -115
-10 -211 -12 -213 -2 -2 -13 1 -24 8 -16 8 -21 20 -21 52 0 50 -17 40 -22 -12
-2 -21 -8 -34 -15 -33 -9 2 -13 -14 -13 -57 0 -33 3 -60 6 -60 20 0 42 22 37
38 -2 10 3 24 11 31 14 12 15 10 10 -16 -5 -25 -2 -31 16 -36 33 -9 15 -25
-35 -33 -25 -3 -45 -11 -45 -18 0 -12 69 -14 88 -2 7 4 12 1 12 -8 0 -22 21
-20 27 3 4 14 18 20 60 25 61 7 77 1 50 -18 -9 -7 -17 -18 -17 -25 0 -6 -7
-11 -16 -11 -8 0 -12 -5 -8 -11 4 -8 9 -8 17 0 13 13 51 15 43 2 -3 -5 -30
-15 -58 -21 -29 -7 -58 -17 -65 -22 -7 -6 -18 -8 -25 -6 -7 3 -18 -2 -24 -10
-6 -8 -26 -20 -44 -26 -19 -6 -36 -17 -38 -25 -5 -16 3 -15 103 24 119 46 164
59 172 51 5 -4 -1 -15 -13 -25 -16 -13 -18 -20 -10 -33 17 -27 -4 -35 -23 -9
-15 20 -21 22 -39 12 -12 -7 -22 -19 -22 -28 0 -13 -3 -13 -15 -3 -16 13 -38
7 -85 -21 -8 -5 -23 -12 -33 -16 -10 -3 -16 -12 -13 -19 3 -8 0 -11 -10 -7
-11 4 -14 -5 -14 -41 l0 -46 124 65 c124 65 156 76 156 52 0 -18 -29 -57 -43
-57 -6 0 -36 -12 -65 -27 -34 -17 -51 -31 -47 -40 2 -8 1 -12 -4 -9 -11 7 -91
-25 -91 -36 0 -5 10 -6 21 -3 15 5 19 4 15 -4 -4 -6 -20 -10 -34 -9 -24 3 -27
-1 -30 -29 -2 -18 -1 -33 3 -33 8 0 63 40 86 62 20 19 82 34 99 23 6 -4 -14
-20 -47 -37 -54 -28 -143 -102 -143 -120 0 -4 13 -8 30 -8 39 0 39 -15 0 -29
l-30 -10 0 -182 0 -182 60 6 c32 4 61 3 64 -2 3 -5 -23 -12 -59 -16 l-65 -7 0
-34 c0 -39 -13 -36 160 -39 296 -4 331 -5 326 -14 -3 -5 -24 -9 -46 -9 -48 -1
-60 -7 -60 -33 0 -23 -1 -23 -33 -6 -29 15 -195 13 -211 -3 -7 -7 -1 -10 19
-10 16 0 36 -6 44 -14 13 -12 26 -12 68 -4 29 6 50 15 47 20 -4 6 4 4 17 -3
32 -17 96 -18 117 -2 9 7 24 12 32 13 13 0 13 -1 0 -10 -22 -14 -12 -17 68
-23 63 -5 76 -3 92 13 20 20 78 20 90 -1 6 -8 13 -8 28 0 11 6 30 11 42 11 14
0 20 5 18 18 -2 13 5 18 35 20 26 2 37 -1 35 -10 -2 -8 8 -11 32 -9 19 2 38 5
42 7 13 8 0 39 -16 38 -9 -1 -16 2 -16 7 0 5 3 9 8 10 4 0 16 2 27 4 11 2 28
-4 39 -13 11 -9 16 -11 12 -4 -9 16 4 15 26 -2 10 -7 18 -21 18 -30 0 -10 8
-16 21 -16 27 0 19 27 -30 98 -20 29 -40 62 -46 73 -5 10 -13 19 -17 19 -5 0
-8 4 -8 9 0 5 -28 51 -61 101 -40 59 -64 88 -69 80 -6 -9 -9 -9 -13 1 -4 11
-9 10 -23 -4 -17 -16 -17 -17 -2 -11 10 3 18 2 18 -3 0 -6 10 -15 23 -21 12
-6 16 -11 10 -11 -7 -1 -13 -8 -13 -17 0 -8 -4 -12 -10 -9 -5 3 -10 2 -10 -3
0 -5 -13 -7 -30 -4 -17 2 -30 10 -30 18 0 20 -18 17 -23 -3 -3 -12 -5 -8 -6 9
0 15 4 30 10 34 8 4 -1 14 -22 25 -27 14 -29 18 -14 19 12 0 27 6 33 12 10 10
17 10 32 0 26 -16 31 -15 24 3 -5 11 -2 13 10 9 24 -9 19 13 -14 63 -17 24
-30 48 -30 53 0 13 -50 70 -61 70 -6 0 -7 -4 -4 -10 4 -6 -10 -10 -34 -10 -27
0 -48 -7 -60 -19 -11 -11 -37 -24 -58 -30 -53 -13 -186 -8 -191 8 -3 9 13 12
59 11 110 -3 139 0 139 11 0 7 -28 10 -87 8 -50 -2 -90 0 -93 6 -7 13 43 22
122 21 36 -1 64 2 61 7 -2 4 -13 7 -24 7 -24 0 -25 17 -1 24 9 2 45 8 79 11
69 8 90 23 74 53 -10 19 -7 20 69 20 44 1 84 3 89 6 12 8 59 -31 75 -62 8 -15
60 -72 116 -127 56 -55 199 -199 318 -319 119 -120 225 -226 235 -235 26 -24
21 -38 -13 -33 -33 5 -40 -11 -12 -27 14 -9 12 -11 -13 -12 -16 -1 -34 -1 -39
0 -5 1 -16 -1 -25 -5 -13 -5 -11 -8 9 -14 37 -12 98 -11 105 0 18 30 56 7 161
-101 274 -279 352 -359 395 -405 63 -66 131 -124 146 -124 7 0 13 -7 13 -15 0
-8 7 -15 15 -15 8 0 15 7 15 15 0 20 5 19 33 -9 19 -19 21 -26 11 -30 -8 -3
-14 -20 -14 -40 0 -25 -5 -36 -17 -38 -20 -4 -63 13 -63 24 0 4 -34 41 -75 82
-41 41 -75 79 -75 85 0 6 -5 11 -12 11 -6 0 -24 15 -39 33 -15 17 -31 29 -35
24 -4 -4 -3 -12 3 -18 6 -6 9 -18 6 -25 -3 -8 0 -14 6 -14 6 0 58 -48 116
-107 73 -75 105 -115 105 -131 0 -13 4 -20 10 -17 6 3 7 -1 4 -9 -3 -9 -10
-14 -14 -11 -5 3 -11 1 -15 -5 -3 -5 -2 -10 3 -10 5 0 12 -9 15 -20 3 -13 10
-18 21 -14 9 3 16 1 16 -5 0 -6 -6 -11 -14 -11 -8 0 -16 -6 -19 -14 -8 -19
-57 -8 -57 13 -1 20 -38 65 -67 80 -25 13 -33 14 -32 4 1 -5 0 -17 -1 -28 -2
-17 -3 -16 -9 5 -4 14 -12 25 -19 24 -7 -1 -21 -2 -32 -2 -14 -2 -20 -10 -21
-29 l-1 -28 -8 30 c-4 17 -8 25 -9 20 -3 -25 -57 -9 -88 25 -37 39 -42 61 -14
53 10 -2 24 2 32 9 18 18 108 12 116 -8 3 -8 12 -14 20 -14 11 0 9 8 -9 33
-27 38 -67 77 -79 77 -5 0 -9 8 -9 19 0 10 -8 21 -17 25 -10 3 -26 11 -35 18
-14 10 -22 8 -49 -11 l-32 -24 5 27 c4 18 1 26 -8 26 -20 0 -17 -28 7 -66 11
-19 17 -34 12 -34 -4 0 -1 -5 7 -10 8 -6 29 -7 45 -4 30 6 30 6 12 -14 -11
-11 -16 -27 -12 -34 3 -7 -3 -1 -14 14 -15 18 -27 24 -42 21 -16 -5 -20 -1
-19 13 4 34 0 43 -15 38 -9 -4 -21 6 -34 27 -19 32 -20 59 -1 29 8 -13 10 -13
10 1 0 11 -11 18 -32 22 -39 6 -44 3 -29 -15 7 -7 34 -43 60 -80 27 -37 67
-90 90 -117 23 -27 41 -52 41 -56 0 -7 50 -74 82 -109 24 -27 33 -14 13 18
-14 21 -15 26 -3 26 8 0 19 -5 25 -11 8 -8 17 -7 33 4 18 12 26 13 42 4 14 -9
20 -9 27 1 6 10 10 10 21 -3 7 -8 18 -15 25 -15 7 0 15 -7 19 -15 3 -9 0 -15
-9 -15 -8 0 -15 -5 -15 -11 0 -5 10 -9 23 -7 20 3 22 -1 19 -32 -5 -43 -5 -43
-44 -42 -18 0 -39 -4 -46 -11 -11 -9 -19 -5 -38 18 -13 17 -24 36 -24 43 0 6
-4 12 -10 12 -5 0 -10 -2 -10 -6 0 -8 44 -88 52 -94 10 -8 58 -80 58 -87 0 -4
22 -32 50 -64 27 -32 50 -62 50 -67 0 -5 9 -17 21 -28 12 -10 27 -31 35 -46 7
-14 31 -46 52 -70 20 -24 64 -84 97 -133 33 -50 63 -91 68 -93 4 -2 7 -10 7
-18 0 -7 11 -21 25 -30 14 -9 25 -20 25 -25 0 -5 23 -39 50 -74 28 -36 56 -76
62 -90 6 -14 15 -25 20 -25 4 0 8 -6 8 -13 0 -8 13 -27 30 -43 16 -16 30 -33
30 -38 0 -4 23 -36 51 -69 28 -34 54 -67 56 -74 4 -10 201 -13 977 -13 l971 1
-42 25 c-24 14 -43 30 -43 35 0 5 -7 9 -15 9 -8 0 -15 4 -15 9 0 5 -13 17 -29
28 -34 21 -219 162 -240 181 -8 8 -33 25 -55 39 -23 15 -59 41 -82 60 -23 18
-45 33 -50 33 -5 0 -15 9 -22 20 -7 11 -19 20 -27 20 -8 0 -18 6 -22 13 -4 7
-24 24 -43 37 -19 13 -37 27 -40 30 -3 4 -63 51 -135 105 -71 54 -144 110
-161 124 -17 14 -60 47 -95 73 -35 26 -109 82 -165 125 -55 43 -217 168 -360
278 -541 418 -840 644 -871 658 -13 6 -23 15 -23 20 0 6 -3 8 -6 4 -9 -9 -86
33 -116 65 -36 37 -62 35 -100 -8 -38 -44 -75 -45 -70 -1 3 20 -1 27 -13 27
-11 0 -16 7 -14 23 4 31 -8 47 -35 47 -13 0 -36 6 -50 14 -19 9 -38 11 -62 6
-29 -7 -33 -6 -23 6 6 8 18 14 26 14 18 0 93 61 93 76 0 16 -137 139 -251 225
-52 40 -121 95 -154 123 -55 47 -135 112 -295 237 -69 54 -335 295 -369 334
-58 68 -101 148 -101 188 0 34 6 46 42 80 35 34 38 39 18 33 -14 -5 -63 -18
-110 -31 -47 -12 -100 -29 -117 -38 -39 -21 -53 -21 -53 -3 0 8 17 21 38 30
l37 16 -42 -7 c-41 -5 -58 6 -33 22 8 5 7 11 0 20 -15 18 4 55 27 55 13 0 14
2 2 17 -12 15 -12 16 5 10 17 -7 18 -2 11 95 -6 89 -10 106 -31 129 -22 23
-24 33 -24 137 0 93 3 112 15 112 8 0 15 5 15 10 0 6 -4 10 -9 10 -4 0 -8 18
-8 41 0 25 3 36 8 27 11 -18 27 0 35 40 6 28 4 34 -15 39 -22 6 -19 23 5 23 8
0 23 9 35 21 19 19 20 30 18 170 -3 123 0 152 11 160 9 5 136 9 295 9 373 -1
355 -2 355 12 0 8 -80 10 -318 5 -177 -3 -324 -2 -332 3 -11 7 -14 33 -15 107
l0 98 -48 1 c-54 2 -66 9 -49 26 17 17 15 55 -4 62 -36 14 -42 7 -41 -41z m51
-112 c9 -14 -4 -41 -19 -41 -15 0 -24 19 -17 38 5 14 28 16 36 3z m-1 -965
l38 -35 -3 -73 -3 -73 -70 -3 c-38 -1 -76 2 -84 7 -10 6 -13 29 -12 82 2 69 4
75 34 101 42 36 56 35 100 -6z m-236 -288 c-2 -47 -20 -55 -25 -12 -4 30 3 54
17 54 5 0 9 -19 8 -42z m-156 -11 c39 4 59 2 59 -5 0 -16 -8 -19 -72 -26 l-58
-7 1 33 c1 18 3 25 6 16 4 -15 13 -17 64 -11z m264 -4 c18 -24 1 -53 -29 -53
-30 0 -49 23 -41 50 8 25 53 27 70 3z m-126 -150 c-3 -47 -3 -48 24 -45 34 4
35 -11 2 -35 -23 -17 -31 -52 -24 -113 1 -8 -2 -22 -6 -32 -5 -13 -1 -16 24
-15 16 1 29 -2 28 -8 -1 -5 -14 -9 -29 -7 -18 1 -28 -3 -28 -12 0 -15 24 -39
31 -31 3 2 20 6 39 8 19 3 43 8 54 12 14 6 17 4 14 -6 -3 -8 -13 -16 -23 -17
-9 -2 -40 -17 -67 -33 -28 -17 -52 -29 -53 -27 -6 5 -13 382 -8 396 12 29 24
8 22 -35z m118 -99 c3 -50 -5 -86 -17 -79 -15 10 -13 128 3 123 6 -3 13 -22
14 -44z m182 -83 c6 -10 7 -21 4 -25 -9 -8 -33 14 -33 30 0 20 18 17 29 -5z
m-139 -59 c0 -13 -12 -22 -22 -16 -10 6 -1 24 13 24 5 0 9 -4 9 -8z m-240
-111 c0 -23 -6 -30 -26 -35 -14 -4 -32 -2 -39 4 -9 7 -26 8 -56 1 -24 -5 -45
-9 -46 -7 -3 3 147 64 160 65 4 1 7 -12 7 -28z m860 -16 c0 -16 -35 -21 -44
-6 -8 12 4 21 26 21 10 0 18 -7 18 -15z m-771 -87 c1 -10 -3 -18 -9 -18 -5 0
-10 19 -9 43 1 36 2 38 9 17 4 -14 8 -33 9 -42z m-203 44 c-7 -12 -65 -24 -77
-16 -17 10 -1 19 41 22 23 1 39 -1 36 -6z m90 -63 c-29 -23 -47 -19 -26 6 7 8
22 15 33 15 18 0 17 -2 -7 -21z m-96 -12 c0 -17 -54 -57 -77 -57 -13 0 -9 8
17 35 35 36 60 45 60 22z m500 -27 c0 -5 -9 -10 -21 -10 -11 0 -17 5 -14 10 3
6 13 10 21 10 8 0 14 -4 14 -10z m66 -157 c-1 -27 -7 -39 -20 -41 -16 -3 -17
1 -11 30 9 39 13 48 25 48 5 0 8 -17 6 -37z m-73 10 c-7 -2 -19 -2 -25 0 -7 3
-2 5 12 5 14 0 19 -2 13 -5z m247 -23 c0 -5 -4 -10 -10 -10 -5 0 -10 5 -10 10
0 6 5 10 10 10 6 0 10 -4 10 -10z m-339 -10 c18 0 8 -18 -13 -25 -20 -6 -21
-8 -5 -12 11 -3 26 4 36 16 19 22 91 30 91 10 0 -5 -4 -7 -10 -4 -5 3 -10 -1
-10 -9 0 -19 -9 -17 150 -19 139 -2 184 -20 60 -25 -41 -1 -85 -4 -98 -7 -36
-9 -15 -25 33 -25 36 0 42 -3 39 -17 -4 -14 -15 -18 -52 -16 -63 2 -88 11 -99
36 -8 18 -17 21 -64 18 -30 -1 -58 -6 -63 -11 -5 -5 -17 -5 -28 1 -14 7 -24 7
-34 -2 -11 -9 -18 -9 -26 -1 -7 7 -21 12 -32 13 -15 1 -11 4 10 10 34 10 55
39 28 39 -9 0 -14 6 -12 13 5 13 55 27 76 21 8 -2 18 -4 23 -4z m-146 -50 c3
-5 2 -10 -4 -10 -5 0 -13 5 -16 10 -3 6 -2 10 4 10 5 0 13 -4 16 -10z m-27
-52 c10 -10 15 -10 22 2 8 13 10 13 10 -2 0 -9 6 -18 13 -21 7 -2 8 -8 3 -13
-5 -5 -11 -4 -13 4 -3 6 -8 10 -12 8 -3 -3 -18 4 -31 15 -14 10 -20 19 -14 19
5 0 16 -6 22 -12z m586 -22 l38 -33 -41 1 c-22 0 -41 4 -41 8 0 5 -15 8 -34 8
-42 0 -59 19 -19 21 24 2 25 2 5 6 -32 6 -17 23 22 23 23 0 44 -10 70 -34z
m-339 5 c44 -10 20 -18 -64 -22 -51 -3 -75 0 -78 8 -6 18 82 27 142 14z m-275
-27 c0 -2 -9 -4 -21 -4 -11 0 -18 4 -14 10 5 8 35 3 35 -6z m32 -9 c0 -5 -5
-11 -11 -13 -6 -2 -11 4 -11 13 0 9 5 15 11 13 6 -2 11 -8 11 -13z m281 -81
c12 -13 -3 -21 -28 -17 -13 3 -22 9 -19 14 6 10 38 12 47 3z m-93 -13 c0 -10
-30 -24 -37 -17 -3 3 -2 9 2 15 8 13 35 15 35 2z m350 -1 c0 -5 -13 -10 -29
-10 -17 0 -33 5 -36 10 -4 6 8 10 29 10 20 0 36 -4 36 -10z m-357 -67 c-7 -2
-19 -2 -25 0 -7 3 -2 5 12 5 14 0 19 -2 13 -5z m1525 -335 c-2 -6 -16 -13 -31
-15 -21 -3 -25 0 -21 12 7 18 58 21 52 3z m372 -313 c0 -2 -23 -11 -51 -20
-35 -12 -54 -14 -61 -7 -18 18 -1 27 56 29 31 0 56 0 56 -2z m-133 -21 c-3 -3
-12 -4 -19 -1 -8 3 -5 6 6 6 11 1 17 -2 13 -5z m-307 -53 c0 -6 -5 -13 -10
-16 -15 -9 -43 3 -35 15 8 13 45 13 45 1z m403 -163 c4 -10 8 -10 16 1 8 13
13 11 29 -10 24 -28 22 -35 -6 -20 -21 11 -42 -2 -42 -28 0 -29 -15 1 -17 35
-2 33 10 46 20 22z m-376 -63 c8 -22 -6 -33 -17 -15 -13 20 -12 30 0 30 6 0
13 -7 17 -15z m373 -26 c0 -5 -4 -9 -10 -9 -5 0 -10 -5 -10 -11 0 -6 7 -8 16
-5 26 10 82 -39 95 -84 7 -22 17 -40 23 -41 6 -1 20 -2 31 -3 23 -1 35 -46 13
-46 -10 0 -9 -3 2 -10 8 -5 15 -13 15 -17 1 -23 30 -50 48 -45 24 6 39 -16 26
-39 -13 -25 -12 -29 12 -29 11 0 17 -4 14 -10 -4 -6 -3 -19 1 -28 10 -23 11
-122 1 -122 -10 0 -57 50 -57 60 0 4 -15 23 -32 42 -18 19 -53 58 -77 87 -24
29 -54 56 -66 61 -17 7 -22 14 -18 29 4 15 -6 31 -36 59 -23 21 -41 43 -41 50
0 6 -9 19 -19 29 -11 10 -21 27 -23 38 -2 15 2 19 18 17 16 -2 23 4 28 22 4
18 11 23 26 19 11 -3 20 -9 20 -14z m310 -54 c0 -13 7 -28 14 -32 12 -7 13
-17 5 -51 -5 -23 -6 -54 -3 -67 4 -16 2 -25 -5 -25 -6 0 -17 -12 -23 -27 -7
-19 -12 -23 -15 -13 -2 8 -17 24 -33 35 -29 20 -24 37 10 28 10 -3 20 3 25 14
14 34 22 93 14 99 -12 7 -11 64 1 64 6 0 10 -11 10 -25z m-460 -200 c0 -24
-15 -42 -23 -28 -3 5 -3 20 0 35 6 33 23 27 23 -7z m-30 10 c0 -8 -4 -15 -10
-15 -5 0 -10 7 -10 15 0 8 5 15 10 15 6 0 10 -7 10 -15z m575 -72 c-8 -45 -25
-41 -20 5 1 20 4 46 5 57 1 17 3 17 11 -5 6 -14 8 -40 4 -57z m-501 -42 c-9
-10 -26 18 -18 30 5 9 9 8 14 -7 4 -10 6 -21 4 -23z m450 -12 c38 -22 46 -46
20 -56 -19 -7 -64 34 -64 59 0 23 1 23 44 -3z m-364 -9 c0 -5 -4 -10 -10 -10
-5 0 -10 5 -10 10 0 6 5 10 10 10 6 0 10 -4 10 -10z m220 -75 c0 -8 -4 -15
-10 -15 -5 0 -10 7 -10 15 0 8 5 15 10 15 6 0 10 -7 10 -15z m170 -15 c6 -12
8 -29 5 -40 -4 -13 1 -22 17 -31 20 -11 32 -14 77 -18 8 0 11 -8 8 -20 -3 -14
5 -22 33 -35 20 -9 42 -16 48 -16 16 0 15 -20 0 -20 -8 -1 -6 -6 5 -14 18 -14
17 -15 -3 -21 -11 -4 -34 -4 -50 0 -17 4 -30 2 -30 -3 0 -13 22 -21 83 -28 52
-7 107 -37 107 -60 0 -6 6 -14 14 -17 15 -6 11 -47 -5 -47 -5 0 -9 -9 -9 -20
0 -25 34 -46 88 -54 46 -7 82 -25 82 -41 0 -6 -29 -10 -71 -9 -62 0 -75 4
-105 28 -27 21 -34 34 -34 61 0 25 -5 35 -20 40 -23 7 -70 51 -70 65 0 5 -11
12 -24 16 -27 6 -66 44 -70 67 -1 8 -8 22 -15 31 -8 9 -11 26 -7 41 5 20 3 25
-13 25 -11 0 -21 -5 -23 -12 -6 -17 -58 32 -58 54 0 11 -4 27 -9 36 -11 22 4
62 23 62 9 0 20 -9 26 -20z m88 -30 c7 -11 8 -20 2 -20 -5 0 -14 9 -20 20 -6
11 -7 20 -3 20 5 0 14 -9 21 -20z m392 -624 c0 -3 -4 -8 -10 -11 -5 -3 -10 -1
-10 4 0 6 5 11 10 11 6 0 10 -2 10 -4z"/>
<path d="M500 3691 c-13 -25 4 -38 26 -20 20 16 30 4 13 -17 -11 -14 -10 -17
4 -25 19 -11 23 -34 7 -44 -6 -3 -18 1 -27 11 -12 11 -18 13 -21 5 -7 -22 7
-41 31 -41 28 0 62 34 51 51 -4 7 -7 28 -6 48 1 19 -4 39 -11 43 -22 14 -56 8
-67 -11z"/>
<path d="M420 3404 c0 -28 15 -25 23 6 3 13 0 20 -9 20 -8 0 -14 -10 -14 -26z"/>
<path d="M6230 4840 c0 -5 5 -10 10 -10 6 0 10 5 10 10 0 6 -4 10 -10 10 -5 0
-10 -4 -10 -10z"/>
<path d="M6275 4827 c-4 -10 -5 -21 -1 -24 10 -10 18 4 13 24 -4 17 -4 17 -12
0z"/>
<path d="M6240 4771 c0 -12 5 -21 10 -21 6 0 10 6 10 14 0 8 -4 18 -10 21 -5
3 -10 -3 -10 -14z"/>
<path d="M6281 4744 c0 -11 3 -14 6 -6 3 7 2 16 -1 19 -3 4 -6 -2 -5 -13z"/>
<path d="M6240 4705 c0 -8 5 -15 10 -15 6 0 10 7 10 15 0 8 -4 15 -10 15 -5 0
-10 -7 -10 -15z"/>
<path d="M6279 4653 c0 -16 -2 -43 -3 -61 -2 -18 0 -35 5 -38 5 -3 9 24 9 60
0 36 -2 66 -5 66 -3 0 -5 -12 -6 -27z"/>
<path d="M1432 4650 c0 -14 2 -19 5 -12 2 6 2 18 0 25 -3 6 -5 1 -5 -13z"/>
<path d="M6120 4577 l0 -67 35 0 c32 0 35 2 25 19 -5 11 -10 32 -10 47 0 22
-2 25 -15 14 -8 -7 -15 -11 -16 -9 0 2 -2 14 -3 26 -6 52 -16 32 -16 -30z"/>
<path d="M6237 4634 c-10 -11 -8 -44 2 -44 6 0 13 4 16 10 8 12 -9 43 -18 34z"/>
<path d="M6228 4529 c-17 -18 -17 -19 0 -19 19 0 42 18 42 32 0 14 -25 7 -42
-13z"/>
<path d="M6291 4364 c0 -11 3 -14 6 -6 3 7 2 16 -1 19 -3 4 -6 -2 -5 -13z"/>
<path d="M6245 4310 c3 -5 8 -10 11 -10 2 0 4 5 4 10 0 6 -5 10 -11 10 -5 0
-7 -4 -4 -10z"/>
<path d="M94 4266 c-9 -24 12 -44 28 -28 10 10 8 16 -5 29 -15 15 -17 15 -23
-1z"/>
<path d="M405 4260 c-3 -5 1 -10 10 -10 9 0 13 5 10 10 -3 6 -8 10 -10 10 -2
0 -7 -4 -10 -10z"/>
<path d="M6122 4165 c0 -16 2 -22 5 -12 2 9 2 23 0 30 -3 6 -5 -1 -5 -18z"/>
<path d="M6117 4070 c3 -11 9 -17 15 -14 5 3 4 12 -3 20 -16 19 -18 18 -12 -6z"/>
<path d="M93 4047 c-8 -18 -7 -27 7 -45 23 -28 33 -14 24 33 -7 41 -17 44 -31
12z"/>
<path d="M340 4030 c0 -5 5 -10 10 -10 6 0 10 5 10 10 0 6 -4 10 -10 10 -5 0
-10 -4 -10 -10z"/>
<path d="M400 4030 c0 -5 6 -10 14 -10 8 0 18 5 21 10 3 6 -3 10 -14 10 -12 0
-21 -4 -21 -10z"/>
<path d="M3667 3924 c-12 -13 -8 -51 8 -64 12 -10 15 -9 14 6 -2 33 -14 66
-22 58z"/>
<path d="M3602 3790 c0 -19 2 -27 5 -17 2 9 2 25 0 35 -3 9 -5 1 -5 -18z"/>
<path d="M3500 3731 c0 -17 5 -31 10 -31 6 0 10 11 10 24 0 14 -4 28 -10 31
-6 4 -10 -7 -10 -24z"/>
<path d="M4600 3716 c0 -19 5 -38 10 -41 6 -4 10 10 10 34 0 23 -4 41 -10 41
-5 0 -10 -15 -10 -34z"/>
<path d="M3760 3716 c0 -17 14 -29 23 -20 8 8 -3 34 -14 34 -5 0 -9 -6 -9 -14z"/>
<path d="M2862 3571 c-1 -41 2 -71 6 -65 5 5 6 38 2 74 l-7 65 -1 -74z"/>
<path d="M351 3604 c0 -11 3 -14 6 -6 3 7 2 16 -1 19 -3 4 -6 -2 -5 -13z"/>
<path d="M2750 3572 c0 -29 4 -52 8 -52 8 0 5 91 -4 99 -2 2 -4 -19 -4 -47z"/>
<path d="M920 3480 c-8 -5 -61 -13 -118 -20 -115 -13 -187 -33 -87 -24 33 3
101 10 150 16 50 7 117 11 150 10 58 -2 97 9 82 24 -4 4 -12 3 -18 -3 -6 -6
-27 -9 -45 -7 -19 2 -49 6 -66 8 -18 2 -40 0 -48 -4z"/>
<path d="M1175 3481 c-3 -5 -1 -12 4 -15 12 -8 41 3 41 15 0 12 -37 12 -45 0z"/>
<path d="M2740 3461 c4 -16 5 -32 2 -36 -3 -3 -7 -27 -9 -52 -3 -53 6 -63 55
-63 18 0 31 -4 28 -9 -3 -5 8 -11 25 -15 44 -9 49 -8 43 8 -3 8 -1 17 5 20 7
5 7 15 0 33 -5 14 -7 45 -4 67 6 42 -11 85 -22 58 -3 -7 -12 -18 -20 -25 -8
-7 -23 -19 -33 -29 -17 -15 -18 -14 -25 18 -3 19 -3 39 0 44 4 6 -7 10 -24 10
-28 0 -29 -2 -21 -29z m102 -62 c-2 -8 -4 -21 -5 -31 -1 -18 -37 -32 -49 -20
-4 4 -3 14 2 22 7 10 10 11 10 3 0 -7 5 -13 10 -13 6 0 10 14 10 31 0 20 4 29
13 26 6 -2 11 -11 9 -18z"/>
<path d="M1128 3473 c7 -3 16 -2 19 1 4 3 -2 6 -13 5 -11 0 -14 -3 -6 -6z"/>
<path d="M2660 3454 c0 -8 5 -12 10 -9 6 4 8 11 5 16 -9 14 -15 11 -15 -7z"/>
<path d="M3505 3418 c-3 -18 -3 -46 -1 -63 3 -16 5 -37 6 -45 4 -33 20 48 18
88 -2 53 -15 64 -23 20z"/>
<path d="M3700 3443 c0 -5 11 -9 25 -9 14 -1 22 2 19 7 -6 11 -44 12 -44 2z"/>
<path d="M938 3433 c7 -3 16 -2 19 1 4 3 -2 6 -13 5 -11 0 -14 -3 -6 -6z"/>
<path d="M3837 3433 c-4 -3 -7 -11 -7 -17 0 -6 5 -5 12 2 6 6 9 14 7 17 -3 3
-9 2 -12 -2z"/>
<path d="M2652 3408 c-8 -8 -9 -15 -1 -25 13 -15 4 -47 -11 -38 -5 3 -10 2
-10 -4 0 -12 48 -27 56 -18 8 7 -7 97 -15 97 -4 0 -12 -5 -19 -12z"/>
<path d="M970 3400 c-8 -5 -28 -12 -43 -15 -16 -3 -40 -18 -54 -33 -32 -34
-27 -84 13 -139 78 -105 353 -351 534 -479 48 -34 55 -21 8 14 -26 19 -22 27
19 40 44 14 52 9 28 -18 -23 -26 -13 -50 23 -50 16 0 32 -3 36 -7 4 -4 21 -9
39 -10 58 -5 82 -10 82 -16 0 -14 -36 -47 -50 -47 -8 0 -15 -5 -15 -10 0 -7
-8 -7 -22 1 -41 21 27 -45 72 -70 42 -24 50 -23 24 4 -13 13 -14 18 -3 31 17
20 63 44 86 44 18 0 65 -39 100 -83 21 -27 61 -38 79 -23 7 7 5 15 -8 28 -21
21 -23 38 -5 38 19 1 56 66 50 89 -3 13 -1 21 6 21 7 0 9 5 6 10 -9 15 -81 50
-102 50 -17 -1 -17 -2 1 -15 26 -20 15 -29 -18 -14 -27 12 -36 39 -13 39 13 0
-78 57 -146 91 -26 13 -59 21 -84 20 -33 -2 -43 2 -43 14 0 8 6 15 13 15 12 0
-14 16 -173 102 -216 118 -381 234 -413 291 -17 31 -17 42 -2 80 8 18 -1 21
-25 7z m-10 -30 c0 -5 -5 -10 -11 -10 -5 0 -7 5 -4 10 3 6 8 10 11 10 2 0 4
-4 4 -10z m-32 -143 c2 -12 -1 -15 -12 -11 -19 7 -22 38 -3 32 6 -3 13 -12 15
-21z m89 -2 c9 -26 -4 -28 -26 -6 -21 21 -21 21 -1 21 11 0 23 -7 27 -15z m14
-107 c-16 -5 -29 -4 -38 4 -13 10 -12 13 4 19 10 3 27 2 38 -4 19 -10 18 -10
-4 -19z m69 -23 c-7 -8 -17 -12 -22 -9 -6 4 -5 10 3 15 22 14 33 10 19 -6z
m-40 -9 c0 -3 -4 -8 -10 -11 -5 -3 -10 -1 -10 4 0 6 5 11 10 11 6 0 10 -2 10
-4z m110 -31 c31 -16 35 -23 22 -41 -16 -24 -52 -23 -82 3 -43 36 -41 41 23
52 4 0 21 -6 37 -14z m111 -108 c-5 -5 -7 -16 -4 -23 7 -20 -41 -18 -57 1 -10
13 -10 19 5 35 14 15 21 17 41 8 16 -7 21 -15 15 -21z m204 -47 c0 -19 -24
-24 -59 -10 -37 14 -23 32 22 28 25 -2 37 -8 37 -18z m-105 -40 c0 -22 -34
-29 -45 -9 -4 6 -13 8 -21 5 -8 -3 -14 -1 -14 3 0 12 19 19 53 20 21 1 27 -4
27 -19z m185 -71 c12 -19 -5 -23 -22 -6 -16 16 -16 17 -1 17 9 0 20 -5 23 -11z
m271 -68 c-4 -5 0 -11 6 -14 16 -5 -29 -57 -49 -57 -18 0 -17 16 2 24 8 3 15
14 15 25 0 16 8 25 28 30 2 1 1 -3 -2 -8z"/>
<path d="M1105 3030 c4 -6 11 -8 16 -5 14 9 11 15 -7 15 -8 0 -12 -5 -9 -10z"/>
<path d="M1746 3403 c-12 -13 -6 -53 9 -53 9 0 15 9 15 24 0 26 -12 40 -24 29z"/>
<path d="M3580 3351 c0 -6 9 -9 20 -8 11 1 20 5 20 9 0 4 -9 8 -20 8 -11 0
-20 -4 -20 -9z"/>
<path d="M150 3330 c0 -5 5 -10 10 -10 6 0 10 5 10 10 0 6 -4 10 -10 10 -5 0
-10 -4 -10 -10z"/>
<path d="M3499 3232 c-8 -10 -21 -21 -29 -25 -12 -4 -10 -7 6 -12 20 -6 22
-13 19 -66 -2 -40 2 -62 11 -70 10 -8 15 -5 20 15 3 14 12 26 20 26 8 0 14 5
14 10 0 6 -6 10 -13 10 -8 0 -12 17 -13 55 0 64 -14 87 -35 57z"/>
<path d="M3687 3143 c-4 -3 -7 -11 -7 -17 0 -6 5 -5 12 2 6 6 9 14 7 17 -3 3
-9 2 -12 -2z"/>
<path d="M3580 3110 c0 -5 5 -10 11 -10 5 0 7 5 4 10 -3 6 -8 10 -11 10 -2 0
-4 -4 -4 -10z"/>
<path d="M3567 3072 c-27 -6 -15 -26 21 -33 26 -5 32 -3 32 11 0 19 -23 29
-53 22z"/>
<path d="M3736 3070 c13 -13 74 -20 74 -8 0 4 -8 8 -17 8 -10 0 -29 3 -43 6
-19 5 -22 4 -14 -6z"/>
<path d="M3770 3010 c-11 -7 -7 -10 18 -10 20 0 31 4 27 10 -8 13 -26 13 -45
0z"/>
<path d="M860 2940 c0 -5 -13 -10 -30 -10 -48 0 -37 -32 39 -118 31 -35 49
-48 62 -45 11 3 19 0 19 -6 0 -6 -4 -11 -10 -11 -14 0 -1 -29 34 -76 93 -125
178 -234 183 -234 3 0 3 9 0 20 -6 24 -1 25 19 6 16 -17 19 -36 4 -36 -19 0
-10 -30 20 -63 17 -19 30 -38 30 -41 0 -12 63 -86 72 -86 5 0 6 9 3 20 -4 11
-2 20 4 20 6 0 11 -6 11 -14 0 -7 10 -16 23 -20 35 -9 47 -7 47 9 0 8 -6 15
-14 15 -8 0 -17 12 -20 26 -4 14 -18 30 -34 37 -24 11 -27 17 -26 57 0 25 -1
40 -3 34 -6 -17 -79 13 -87 35 -3 9 -9 21 -12 28 -4 9 9 11 50 7 34 -3 56 0
56 6 0 5 -35 43 -77 83 -42 39 -86 83 -97 97 -12 13 -33 37 -49 53 -27 29 -40
30 -109 11 -13 -4 -16 -1 -12 11 5 12 15 16 35 13 16 -3 29 -1 29 4 0 17 -52
78 -66 78 -7 0 -18 17 -24 38 -6 26 -18 43 -35 50 -32 15 -35 15 -35 2z m261
-290 c1 -5 2 -16 3 -22 0 -7 10 -14 21 -16 27 -5 45 -21 45 -39 0 -10 -6 -12
-22 -8 -11 4 -39 7 -60 7 -41 -1 -64 22 -38 38 7 4 9 13 6 19 -10 16 2 31 25
31 10 0 20 -4 20 -10z m99 -120 c-8 -5 -19 -10 -25 -10 -5 0 -3 5 5 10 8 5 20
10 25 10 6 0 3 -5 -5 -10z m40 -191 c0 -6 -4 -7 -10 -4 -5 3 -10 11 -10 16 0
6 5 7 10 4 6 -3 10 -11 10 -16z"/>
<path d="M2130 2884 c0 -8 5 -12 10 -9 6 3 10 10 10 16 0 5 -4 9 -10 9 -5 0
-10 -7 -10 -16z"/>
<path d="M2095 2829 c3 -12 9 -27 15 -33 17 -17 12 -39 -7 -32 -17 7 -17 6 -1
-10 20 -20 38 -11 38 22 0 15 6 24 15 24 8 0 15 5 15 10 0 6 7 10 15 10 8 0
15 4 15 9 0 5 -10 8 -22 8 -13 0 -37 3 -55 7 -30 7 -32 6 -28 -15z"/>
<path d="M2275 2830 c-4 -6 -8 -29 -9 -51 -3 -35 -1 -40 17 -37 27 4 41 52 22
72 -8 7 -11 16 -8 20 4 3 1 6 -5 6 -6 0 -14 -5 -17 -10z"/>
<path d="M2257 2703 c-12 -11 -8 -33 6 -33 7 0 13 9 13 20 0 20 -7 25 -19 13z"/>
<path d="M1503 2673 c14 -17 28 -21 55 -18 53 4 52 4 52 13 0 12 -58 13 -65 1
-3 -5 -18 -1 -33 8 l-27 17 18 -21z"/>
<path d="M1745 2570 c4 -6 11 -8 16 -5 14 9 11 15 -7 15 -8 0 -12 -5 -9 -10z"/>
<path d="M1695 2530 c3 -5 8 -10 11 -10 2 0 4 5 4 10 0 6 -5 10 -11 10 -5 0
-7 -4 -4 -10z"/>
<path d="M1320 2416 c0 -2 7 -7 16 -10 8 -3 12 -2 9 4 -6 10 -25 14 -25 6z"/>
<path d="M1353 2396 c-14 -16 -7 -26 18 -26 24 0 35 20 18 31 -18 11 -22 11
-36 -5z"/>
<path d="M1023 2252 c-59 -6 -34 -19 37 -19 45 0 69 4 67 11 -4 11 -50 15
-104 8z"/>
<path d="M1505 2250 c-3 -5 -1 -10 4 -10 6 0 11 5 11 10 0 6 -2 10 -4 10 -3 0
-8 -4 -11 -10z"/>
<path d="M775 2240 c-3 -5 -2 -10 4 -10 5 0 13 5 16 10 3 6 2 10 -4 10 -5 0
-13 -4 -16 -10z"/>
<path d="M955 2240 c-3 -5 -2 -10 4 -10 5 0 13 5 16 10 3 6 2 10 -4 10 -5 0
-13 -4 -16 -10z"/>
<path d="M348 2209 c-30 -33 -34 -30 54 -44 21 -3 50 -17 66 -30 25 -21 34
-23 63 -15 42 12 116 13 123 2 3 -5 36 -8 73 -6 37 1 79 -2 93 -8 24 -9 24
-10 6 -24 -11 -8 -16 -14 -10 -15 5 0 -13 -6 -41 -14 -34 -9 -54 -10 -62 -3
-7 6 -20 8 -28 4 -8 -3 -15 -1 -15 4 0 6 5 10 11 10 5 0 7 5 4 10 -11 17 -25
11 -25 -12 0 -12 -3 -18 -7 -15 -7 8 -33 -11 -33 -25 0 -5 67 -8 156 -7 113 1
159 -2 164 -11 5 -8 16 -9 30 -5 15 5 20 4 16 -4 -4 -6 -15 -11 -24 -11 -14 0
-14 -2 -3 -9 17 -11 4 -34 -16 -27 -20 8 -33 -2 -27 -19 4 -8 10 -12 15 -10 4
3 38 6 74 6 36 1 65 4 65 7 1 18 18 32 34 26 11 -4 15 -13 11 -25 -5 -16 -1
-18 44 -16 33 1 51 6 51 15 0 6 -6 12 -14 12 -8 0 -16 7 -20 15 -3 8 -17 15
-31 15 -23 0 -25 2 -15 21 7 11 28 30 47 42 20 11 31 23 25 25 -18 6 -14 42 3
42 14 0 14 3 0 30 -18 36 -61 65 -89 63 -106 -9 -136 -16 -136 -29 0 -14 -21
-19 -33 -8 -3 3 -80 8 -171 10 -119 2 -173 7 -194 18 -20 10 -33 11 -46 4 -12
-7 -21 -7 -29 1 -13 13 -62 14 -85 2 -9 -5 -26 -5 -37 0 -11 4 -14 8 -7 8 6 1
12 8 12 16 0 22 -11 18 -42 -16z m782 -98 c0 -12 -21 -19 -42 -13 -29 7 -21
22 12 22 17 0 30 -4 30 -9z m45 -1 c3 -5 1 -10 -4 -10 -6 0 -11 5 -11 10 0 6
2 10 4 10 3 0 8 -4 11 -10z m-160 -20 c17 -19 17 -20 -1 -21 -10 -1 -36 -2
-56 -3 -25 -2 -38 2 -38 10 0 7 -8 10 -20 7 -16 -4 -19 -2 -14 11 10 25 105
22 129 -4z m45 16 c0 -2 -9 -6 -20 -9 -11 -3 -20 -1 -20 4 0 5 9 9 20 9 11 0
20 -2 20 -4z m80 -66 c0 -5 -4 -11 -10 -11 -5 -1 -16 -2 -22 -3 -26 -4 -32 8
-8 15 36 10 40 10 40 -1z"/>
<path d="M850 2230 c0 -5 5 -10 10 -10 6 0 10 5 10 10 0 6 -4 10 -10 10 -5 0
-10 -4 -10 -10z"/>
<path d="M898 2233 c7 -3 16 -2 19 1 4 3 -2 6 -13 5 -11 0 -14 -3 -6 -6z"/>
<path d="M266 2204 c-20 -20 -21 -30 -1 -14 8 7 22 10 30 6 9 -3 15 0 15 9 0
20 -25 19 -44 -1z"/>
<path d="M1320 2207 c0 -8 19 -35 41 -61 33 -37 44 -44 55 -35 8 6 27 9 44 6
24 -5 28 -4 23 11 -3 9 -10 22 -14 28 -5 6 -6 14 -2 18 13 12 -21 26 -65 26
-24 0 -52 5 -63 10 -14 8 -19 7 -19 -3z"/>
<path d="M135 2120 c-74 -7 -73 -7 90 -16 44 -2 91 -7 105 -10 l25 -6 -22 -18
-22 -17 34 -19 c19 -10 31 -22 28 -28 -4 -5 1 -7 11 -3 10 4 23 7 29 7 7 0 7
4 -2 9 -12 8 -11 12 4 28 10 10 30 24 44 31 14 7 17 10 7 7 -11 -3 -22 -1 -26
5 -4 7 -18 8 -33 5 -15 -4 -24 -12 -21 -17 6 -10 -12 -28 -28 -28 -15 0 -8 30
12 50 11 11 20 22 20 25 0 7 -165 3 -255 -5z"/>
<path d="M0 2110 c0 -5 5 -10 11 -10 5 0 7 5 4 10 -3 6 -8 10 -11 10 -2 0 -4
-4 -4 -10z"/>
<path d="M30 2110 c0 -5 7 -7 15 -4 8 4 15 8 15 10 0 2 -7 4 -15 4 -8 0 -15
-4 -15 -10z"/>
<path d="M1430 2070 c6 -11 16 -20 22 -20 6 0 3 9 -7 20 -10 11 -20 20 -22 20
-2 0 1 -9 7 -20z"/>
<path d="M1491 2073 c-7 -8 -11 -16 -8 -19 6 -7 37 7 37 16 0 16 -15 18 -29 3z"/>
<path d="M440 2027 c0 -9 12 -11 40 -9 22 2 40 8 40 13 0 5 -18 9 -40 9 -26 0
-40 -5 -40 -13z"/>
<path d="M560 2030 c0 -5 9 -10 20 -10 11 0 20 5 20 10 0 6 -9 10 -20 10 -11
0 -20 -4 -20 -10z"/>
<path d="M1475 2010 c19 -21 30 -27 20 -10 -3 6 0 10 7 11 7 0 4 4 -7 9 -33
14 -39 11 -20 -10z"/>
<path d="M443 1970 c-1 -11 2 -20 8 -20 5 0 9 9 9 20 0 11 -4 20 -8 20 -4 0
-8 -9 -9 -20z"/>
<path d="M795 1980 c3 -5 8 -10 11 -10 2 0 4 5 4 10 0 6 -5 10 -11 10 -5 0 -7
-4 -4 -10z"/>
<path d="M850 1979 c0 -5 5 -7 10 -4 6 3 10 8 10 11 0 2 -4 4 -10 4 -5 0 -10
-5 -10 -11z"/>
<path d="M70 1965 c0 -9 6 -12 15 -9 8 4 15 7 15 9 0 2 -7 5 -15 9 -9 3 -15 0
-15 -9z"/>
<path d="M825 1970 c-3 -5 -1 -10 4 -10 6 0 11 5 11 10 0 6 -2 10 -4 10 -3 0
-8 -4 -11 -10z"/>
<path d="M540 1955 c0 -15 18 -40 24 -34 3 3 -1 14 -9 25 -8 10 -14 15 -15 9z"/>
<path d="M1251 1934 c0 -11 3 -14 6 -6 3 7 2 16 -1 19 -3 4 -6 -2 -5 -13z"/>
<path d="M1 1924 c0 -11 3 -14 6 -6 3 7 2 16 -1 19 -3 4 -6 -2 -5 -13z"/>
<path d="M445 1930 c3 -5 8 -10 11 -10 2 0 4 5 4 10 0 6 -5 10 -11 10 -5 0 -7
-4 -4 -10z"/>
<path d="M1640 1920 c0 -6 7 -10 15 -10 8 0 15 2 15 4 0 2 -7 6 -15 10 -8 3
-15 1 -15 -4z"/>
<path d="M1826 1921 c-4 -6 -37 -11 -74 -11 -41 0 -62 -4 -53 -9 7 -5 42 -7
78 -6 56 2 69 -1 94 -22 40 -34 37 -14 -5 26 -21 20 -36 29 -40 22z"/>
<path d="M835 1894 c-17 -12 -18 -16 -5 -24 18 -11 50 5 50 25 0 19 -19 19
-45 -1z"/>
<path d="M727 1880 c-13 -16 -14 -20 -2 -20 7 0 17 5 20 10 3 6 15 10 26 10
11 0 17 5 14 10 -10 16 -39 11 -58 -10z"/>
<path d="M1040 1892 c-14 -2 -30 -8 -37 -13 -7 -7 -14 -6 -18 1 -10 17 -45 12
-39 -5 8 -19 74 -21 74 -2 0 9 2 9 8 0 7 -12 72 -14 72 -3 0 12 -37 25 -60 22z"/>
<path d="M1360 1866 c0 -9 5 -16 10 -16 6 0 10 4 10 9 0 6 -4 13 -10 16 -5 3
-10 -1 -10 -9z"/>
<path d="M546 1863 c-3 -3 -28 -5 -57 -4 -58 1 -83 -8 -53 -20 17 -7 17 -8 2
-8 -10 -1 -18 -5 -18 -10 0 -6 27 -8 60 -6 47 3 61 1 68 -12 8 -12 11 -13 17
-2 20 31 3 84 -19 62z"/>
<path d="M600 1835 c-18 -22 -5 -30 19 -13 12 8 18 18 14 21 -10 11 -19 8 -33
-8z"/>
<path d="M673 1833 c-18 -7 -16 -23 2 -23 8 0 15 7 15 15 0 8 -1 15 -2 14 -2
0 -9 -3 -15 -6z"/>
<path d="M1932 1823 c2 -10 11 -19 21 -21 24 -5 21 15 -4 28 -18 10 -20 9 -17
-7z"/>
<path d="M1253 1793 c-7 -2 -13 -9 -13 -14 0 -12 87 -12 94 0 11 17 -49 27
-81 14z"/>
<path d="M1385 1789 c-9 -13 -7 -15 33 -22 35 -7 43 6 13 23 -25 13 -38 13
-46 -1z"/>
<path d="M1650 1789 c0 -8 8 -24 18 -35 9 -11 22 -29 28 -39 12 -22 34 -32 34
-16 0 6 -9 21 -19 33 -11 13 -29 34 -40 48 -15 18 -20 21 -21 9z"/>
<path d="M351 1774 c0 -11 3 -14 6 -6 3 7 2 16 -1 19 -3 4 -6 -2 -5 -13z"/>
<path d="M500 1781 c0 -16 40 -33 85 -38 65 -6 87 -4 111 12 32 21 44 19 44
-7 0 -30 11 -43 35 -43 23 0 33 34 13 46 -11 7 -10 11 2 19 10 7 -28 10 -125
8 -77 -1 -146 1 -152 5 -7 5 -13 4 -13 -2z"/>
<path d="M814 1772 c7 -12 66 -14 66 -2 0 5 -16 10 -36 10 -19 0 -33 -4 -30
-8z"/>
<path d="M1024 1772 c-6 -4 -10 -15 -9 -24 2 -9 -3 -19 -11 -22 -8 -3 -14 -1
-14 4 0 14 -68 12 -72 -2 -3 -7 -9 -8 -18 -3 -12 7 -41 9 -80 6 -5 -1 -10 -8
-10 -17 0 -12 6 -15 24 -10 20 5 23 2 20 -20 -1 -15 4 -28 12 -31 22 -8 27 2
14 28 l-12 22 35 -21 c42 -27 43 -27 50 -2 3 11 11 20 17 20 7 0 10 -6 7 -14
-4 -10 3 -16 21 -19 42 -7 183 -8 194 -1 5 4 33 8 62 10 166 11 195 16 199 32
4 15 5 15 6 0 0 -10 8 -18 17 -18 19 0 14 20 -8 34 -12 7 -24 6 -40 -3 -18 -9
-31 -9 -53 -1 -17 7 -66 13 -110 15 -47 2 -92 9 -109 18 -23 12 -33 13 -48 4
-16 -10 -22 -9 -32 6 -14 18 -34 22 -52 9z"/>
<path d="M1990 1749 c0 -5 5 -7 10 -4 6 3 10 8 10 11 0 2 -4 4 -10 4 -5 0 -10
-5 -10 -11z"/>
<path d="M649 1727 c-29 -8 -44 -17 -42 -24 6 -16 23 -16 73 -1 22 7 40 19 40
25 0 15 -9 15 -71 0z"/>
<path d="M1773 1730 c-40 -16 -27 -35 25 -37 26 0 56 -3 66 -5 22 -4 30 11 17
31 -11 17 -77 23 -108 11z"/>
<path d="M2020 1719 c0 -9 7 -22 15 -29 19 -16 19 0 0 26 -12 16 -14 16 -15 3z"/>
<path d="M418 1709 c-3 -10 -27 -15 -93 -18 -6 -1 -11 -11 -12 -23 0 -13 1
-17 4 -10 3 6 10 9 16 5 12 -7 74 -6 118 3 l27 5 -24 25 c-28 27 -31 28 -36
13z"/>
<path d="M717 1663 c-4 -6 0 -16 8 -23 21 -17 28 -8 11 15 -8 11 -15 14 -19 8z"/>
<path d="M1860 1650 c-26 -8 -22 -10 28 -14 7 -1 16 -7 21 -14 6 -10 10 -10
21 3 7 8 11 17 9 19 -11 9 -57 13 -79 6z"/>
<path d="M1482 1624 c-16 -17 -6 -39 11 -26 7 5 20 8 29 7 11 -2 15 2 11 11
-3 8 -9 11 -14 8 -5 -3 -9 0 -9 5 0 15 -13 13 -28 -5z"/>
<path d="M505 1608 c-4 -9 -13 -14 -20 -11 -19 7 -85 -16 -85 -29 0 -6 16 -25
37 -44 30 -28 33 -34 20 -40 -10 -3 -23 -4 -31 -1 -22 9 -71 -8 -71 -24 0 -8
-7 -19 -15 -25 -11 -10 -12 -15 -2 -27 13 -15 6 -47 -10 -47 -6 0 -8 -7 -4
-15 3 -9 0 -15 -9 -15 -18 0 -20 -19 -2 -21 46 -5 55 -7 65 -13 6 -4 17 2 24
14 16 25 51 27 46 3 -2 -10 -11 -17 -20 -15 -21 3 -31 -13 -15 -26 11 -9 38
-7 132 13 22 5 26 4 15 -4 -12 -9 -12 -11 3 -17 31 -11 20 -34 -13 -28 -20 4
-34 1 -45 -10 -15 -15 -15 -16 5 -16 11 0 23 -7 27 -16 3 -8 12 -13 20 -10 8
3 12 2 9 -3 -3 -4 3 -17 13 -27 18 -20 18 -44 0 -44 -6 0 -8 4 -5 9 3 5 -4 11
-16 14 -26 7 -23 9 -32 -25 -5 -21 -3 -28 9 -28 8 0 15 4 15 8 0 9 27 13 48 6
10 -3 10 -9 2 -24 -9 -17 -17 -19 -58 -13 -26 3 -51 11 -55 17 -6 8 -10 7 -14
-2 -4 -10 -8 -10 -19 -1 -19 16 -18 33 2 25 11 -4 28 5 50 28 42 43 43 56 4
56 -23 0 -28 -4 -24 -17 5 -16 4 -16 -6 0 -6 10 -9 24 -6 32 3 9 0 12 -8 9
-15 -6 -18 -66 -4 -75 6 -4 -2 -9 -16 -13 -21 -5 -26 -12 -26 -37 0 -24 -4
-29 -17 -25 -18 5 -61 -19 -51 -29 3 -3 22 -7 41 -8 36 -3 65 -17 34 -17 -9 0
-17 -7 -17 -15 0 -17 -16 -20 -25 -5 -11 18 -26 10 -20 -10 3 -11 2 -20 -4
-20 -16 0 -24 21 -12 33 14 14 14 27 1 27 -5 0 -10 -7 -10 -15 0 -20 -16 -19
-24 1 -7 18 -77 16 -83 -2 -2 -7 8 -9 27 -6 46 7 37 -16 -16 -39 -43 -19 -64
-42 -50 -56 3 -4 18 4 32 18 l27 24 -7 -28 c-5 -20 -2 -29 9 -33 8 -4 16 -16
16 -28 1 -16 3 -14 9 9 8 30 8 30 9 -8 1 -48 -16 -68 -47 -56 -15 6 -21 5 -17
-1 11 -17 -5 -32 -21 -19 -11 9 -14 7 -14 -9 0 -17 6 -20 45 -20 60 1 67 11
65 97 0 38 12 51 50 51 23 -1 24 -2 8 -14 -26 -20 -23 -38 6 -30 31 7 40 -9
17 -30 -13 -11 -21 -14 -26 -7 -13 22 -26 10 -23 -21 2 -27 7 -33 28 -34 14
-1 31 3 38 8 6 6 12 9 13 7 6 -29 3 -52 -11 -66 -15 -17 -15 -19 8 -37 20 -16
25 -17 33 -5 12 19 11 46 -1 54 -5 3 -6 13 -3 21 8 21 27 1 28 -29 0 -17 7
-23 32 -25 28 -3 32 -7 29 -25 -3 -12 -5 -25 -5 -29 -1 -4 -8 -5 -16 -2 -11 4
-13 2 -9 -9 3 -8 1 -18 -5 -22 -8 -4 -8 -12 0 -27 8 -15 14 -17 22 -9 17 17
55 13 66 -8 10 -18 6 -31 -11 -31 -4 0 -8 9 -8 20 0 13 -7 20 -20 20 -17 0
-19 -5 -14 -25 7 -28 -7 -33 -26 -10 -9 11 -17 12 -32 4 -23 -12 -50 4 -42 25
3 8 -3 17 -13 20 -17 7 -16 8 4 24 17 13 20 21 12 32 -8 11 -12 12 -16 3 -2
-7 -9 -13 -14 -13 -6 0 -7 5 -4 10 3 6 -1 10 -9 10 -9 0 -13 -6 -10 -13 3 -8
-2 -20 -11 -27 -20 -17 -19 -30 3 -30 28 0 34 -11 16 -31 -19 -21 -51 -15 -33
7 9 11 6 14 -20 14 -21 0 -31 5 -31 15 0 8 9 15 19 15 11 0 23 5 26 10 10 16
-24 23 -42 9 -13 -11 -17 -11 -20 -1 -6 17 -23 15 -23 -3 0 -8 -9 -15 -20 -15
-17 0 -26 -11 -17 -24 1 -2 -7 -13 -17 -25 -15 -16 -21 -18 -27 -9 -8 12 -99
19 -99 8 0 -3 -14 -6 -30 -7 -30 -2 -41 11 -17 20 6 3 2 6 -10 6 -23 1 -23 -1
-23 -108 0 -60 5 -122 10 -137 8 -20 8 -29 -2 -35 -9 -6 -10 -15 -3 -35 10
-28 31 -34 29 -9 -1 8 1 13 5 10 4 -2 19 -6 33 -9 21 -3 25 -1 21 15 -4 15 -2
18 11 13 9 -3 16 -10 16 -15 0 -5 7 -9 15 -9 21 0 7 -28 -18 -37 -12 -4 -28
-6 -36 -4 -8 1 -17 -1 -20 -6 -3 -4 -17 -17 -31 -28 -14 -11 -19 -13 -13 -5
17 19 16 30 -2 30 -12 0 -15 -17 -15 -95 l0 -95 565 0 c498 0 564 2 559 15 -8
21 13 19 25 -2 6 -10 11 -12 11 -5 0 14 30 17 30 2 0 -7 246 -10 718 -10 491
1 711 4 700 11 -10 5 -21 28 -24 50 -5 28 -11 39 -20 35 -17 -6 -58 50 -48 65
4 8 3 9 -4 5 -15 -9 -37 18 -78 91 -24 45 -38 59 -58 61 -28 4 -32 12 -15 29
16 16 -8 28 -26 13 -12 -10 -15 -9 -15 4 0 9 7 16 15 16 19 0 20 16 1 27 -7 4
-23 26 -35 48 -11 22 -29 51 -40 65 -38 52 -171 257 -171 264 0 5 -12 23 -27
41 -16 18 -36 43 -45 55 l-17 22 -26 -26 c-30 -30 -38 -32 -56 -10 -9 11 -28
15 -63 14 -28 -1 -53 -1 -56 0 -6 3 -110 10 -198 13 -35 2 -65 0 -68 -4 -2 -4
-21 -6 -41 -5 -21 1 -41 -2 -44 -6 -10 -16 -119 -23 -119 -8 0 9 10 10 34 6
44 -8 53 6 15 23 -33 15 -30 31 7 31 17 0 24 5 24 20 0 15 7 20 29 20 57 0 91
12 91 31 0 14 7 19 25 19 19 0 25 5 25 21 0 15 4 19 16 15 9 -3 29 -6 45 -6
28 0 28 -1 12 -18 -13 -14 -22 -16 -32 -8 -10 8 -17 5 -27 -8 -12 -17 -11 -21
10 -31 12 -7 36 -10 53 -8 17 3 34 0 37 -6 9 -14 36 -3 36 15 0 13 5 15 43 18
6 1 12 -6 12 -14 0 -8 7 -15 15 -15 11 0 14 10 12 43 -4 45 -1 47 56 42 12 -1
22 1 22 5 0 14 -29 61 -49 79 -19 17 -21 17 -21 3 0 -10 5 -17 12 -17 6 0 8
-3 4 -7 -3 -4 -20 8 -36 26 -24 25 -38 32 -72 34 -23 1 -43 -4 -45 -10 -2 -6
-12 -9 -22 -6 -11 3 -29 0 -40 -7 -17 -9 -28 -8 -50 3 -16 8 -34 11 -40 8 -16
-10 -132 -5 -140 5 -3 5 -58 9 -121 9 -104 0 -115 2 -112 18 2 12 -4 17 -23
17 -14 0 -24 -4 -21 -9 7 -11 -25 -25 -33 -14 -3 4 -16 8 -29 8 -29 0 -33 19
-4 23 26 4 28 15 6 36 -17 17 -28 21 -20 7 6 -9 -45 -31 -72 -31 -8 0 -21 -8
-28 -17 -7 -10 -15 -15 -19 -11 -12 12 20 63 48 76 15 7 27 17 27 23 0 5 6 9
14 9 8 0 17 12 22 28 l8 27 5 -33 c8 -44 24 -42 35 5 5 21 10 39 11 41 1 1 27
-9 58 -24 31 -14 61 -23 66 -20 15 9 113 11 139 2 13 -4 22 -15 22 -28 0 -16
5 -19 22 -15 12 3 30 1 40 -4 17 -9 18 -7 12 17 -5 20 -3 25 7 22 8 -3 14 -13
14 -23 0 -20 40 -32 50 -15 3 6 15 10 26 10 10 0 19 7 19 15 0 8 -4 15 -10 15
-5 0 -10 9 -10 21 0 20 3 20 75 14 51 -5 75 -4 75 3 0 17 -10 19 -105 27 -95
7 -109 11 -100 26 9 14 -5 11 -21 -6 -16 -16 -89 -21 -98 -7 -3 5 -28 7 -57 5
-65 -5 -86 2 -70 21 14 17 0 29 -23 20 -13 -5 -16 0 -14 25 3 36 6 38 24 14
12 -17 13 -17 20 1 4 11 2 21 -7 26 -7 5 -10 12 -6 16 3 4 13 1 22 -6 8 -7 21
-10 29 -7 16 6 36 -11 36 -31 0 -7 -8 -12 -17 -11 -29 2 -43 -1 -43 -10 0 -18
58 -29 148 -29 91 0 92 0 92 24 0 15 4 23 10 19 6 -4 8 -15 5 -25 -4 -13 1
-19 22 -23 34 -7 63 16 56 44 -3 11 0 19 6 19 7 0 9 5 6 10 -4 6 -11 7 -17 4
-7 -4 -8 -2 -4 4 4 7 1 20 -6 29 -10 14 -28 18 -80 18 -40 0 -72 -5 -80 -13
-17 -17 -45 -15 -52 3 -4 11 -18 14 -58 11 -37 -2 -60 2 -78 14 -30 20 -72 24
-82 7 -5 -9 -10 -9 -20 1 -15 15 -78 16 -78 1 0 -8 -4 -8 -15 1 -8 7 -23 9
-37 4 -53 -17 -170 -19 -199 -3 -15 7 -24 7 -34 -1 -9 -7 -26 -9 -47 -4 -18 4
-51 6 -72 5 -21 0 -45 4 -52 10 -9 7 -14 7 -14 1 0 -13 -53 -12 -62 1 -5 8 -9
6 -13 -5z m445 -58 c0 -5 -4 -10 -10 -10 -5 0 -10 5 -10 10 0 6 5 10 10 10 6
0 10 -4 10 -10z m612 -26 c-7 -12 -11 -13 -17 -4 -4 7 -2 16 6 21 18 11 23 4
11 -17z m-117 -4 c10 -11 22 -17 26 -14 5 3 9 1 9 -3 0 -21 -46 -28 -82 -13
-41 16 -49 30 -19 30 11 0 23 5 26 10 9 15 20 12 40 -10z m-850 -10 c3 -5 -1
-10 -10 -10 -9 0 -13 5 -10 10 3 6 8 10 10 10 2 0 7 -4 10 -10z m140 0 c-3 -5
-11 -10 -16 -10 -6 0 -7 5 -4 10 3 6 11 10 16 10 6 0 7 -4 4 -10z m240 -9 c-4
-3 -38 -6 -75 -6 -78 0 -81 12 -5 17 55 3 89 -1 80 -11z m145 -2 c0 -4 -7 -6
-15 -3 -8 4 -15 1 -15 -5 0 -6 -7 -11 -15 -11 -20 0 -19 10 2 25 18 13 43 10
43 -6z m-572 4 c-10 -2 -26 -2 -35 0 -10 3 -2 5 17 5 19 0 27 -2 18 -5z m-68
-93 c0 -5 -4 -10 -10 -10 -5 0 -10 5 -10 10 0 6 5 10 10 10 6 0 10 -4 10 -10z
m-59 -29 c30 -24 22 -33 -21 -24 -29 5 -31 7 -15 14 11 4 14 8 8 8 -15 1 -18
21 -4 21 5 0 19 -9 32 -19z m49 -1 c0 -5 -4 -10 -10 -10 -5 0 -10 5 -10 10 0
6 5 10 10 10 6 0 10 -4 10 -10z m950 -45 c0 -8 -6 -15 -14 -15 -20 0 -29 17
-14 23 22 9 28 7 28 -8z m-460 -15 c0 -5 -5 -10 -11 -10 -5 0 -7 5 -4 10 3 6
8 10 11 10 2 0 4 -4 4 -10z m-328 -77 c-10 -7 -20 -13 -24 -13 -10 0 -10 32
-1 55 5 15 8 15 24 -6 16 -21 16 -24 1 -36z m58 6 c0 -11 -4 -19 -10 -19 -5 0
-10 9 -10 20 0 11 -5 20 -11 20 -5 0 -7 5 -4 10 10 16 35 -8 35 -31z m590 -84
c7 -9 10 -18 6 -22 -3 -3 -6 -1 -6 5 0 7 -7 12 -15 12 -8 0 -15 5 -15 10 0 15
16 12 30 -5z m-565 -25 c3 -5 -1 -10 -9 -10 -9 0 -16 5 -16 10 0 6 4 10 9 10
6 0 13 -4 16 -10z m440 0 c3 -5 -1 -10 -9 -10 -9 0 -16 5 -16 10 0 6 4 10 9
10 6 0 13 -4 16 -10z m-492 -30 c5 -21 41 -28 52 -10 11 18 23 11 34 -20 8
-25 7 -30 -5 -30 -8 0 -13 4 -10 9 8 12 -42 21 -76 14 -17 -3 -28 -1 -28 6 0
6 4 11 9 11 5 0 7 9 4 20 -3 11 -1 20 5 20 5 0 12 -9 15 -20z m1018 5 c1 -17
-18 -17 -25 0 -4 11 -1 15 10 13 8 -2 15 -7 15 -13z m-387 -20 c-9 -29 -12
-30 -34 -10 -28 25 -25 36 10 33 25 -2 29 -6 24 -23z m66 0 c0 -24 -26 -24
-28 1 -1 17 2 22 13 18 8 -4 15 -12 15 -19z m40 15 c0 -5 -4 -10 -10 -10 -5 0
-10 5 -10 10 0 6 5 10 10 10 6 0 10 -4 10 -10z m225 -21 c10 -15 -1 -22 -24
-14 -12 3 -21 15 -21 26 0 16 3 18 19 9 11 -5 23 -15 26 -21z m-75 17 c0 -11
-19 -15 -25 -6 -3 5 1 10 9 10 9 0 16 -2 16 -4z m-542 -20 c13 -4 22 -3 22 3
0 5 8 8 18 7 82 -15 115 -17 122 -6 5 8 9 4 13 -9 9 -35 -19 -39 -172 -26
-100 9 -150 10 -161 3 -12 -8 -24 -6 -43 7 -15 9 -25 21 -22 25 5 9 193 5 223
-4z m503 -49 c7 -27 -11 -53 -19 -28 -3 9 -7 9 -18 0 -11 -9 -15 -8 -20 4 -3
9 -2 22 2 29 4 7 -3 3 -15 -9 -35 -37 -58 -21 -28 18 28 37 87 28 98 -14z
m-160 10 c-1 -12 -15 -9 -19 4 -3 6 1 10 8 8 6 -3 11 -8 11 -12z m433 5 c5 -1
3 -9 -4 -17 -9 -11 -16 -13 -24 -5 -5 5 -18 10 -28 10 -10 0 -18 3 -18 8 0 6
46 8 74 4z m-480 -23 c-6 -11 -24 -2 -24 11 0 5 7 7 15 4 8 -4 12 -10 9 -15z
m-744 -19 c0 -5 -5 -10 -11 -10 -5 0 -7 5 -4 10 3 6 8 10 11 10 2 0 4 -4 4
-10z m210 -30 c0 -5 -4 -10 -10 -10 -5 0 -10 5 -10 10 0 6 5 10 10 10 6 0 10
-4 10 -10z m-53 -22 c-2 -7 -13 -13 -25 -13 -12 0 -28 -9 -36 -20 -13 -17 -15
-17 -16 -3 0 35 12 48 47 48 23 0 33 -4 30 -12z m-209 -36 c-5 -28 -33 -20
-36 11 -3 26 -2 28 18 17 12 -6 20 -19 18 -28z m-83 18 c3 -5 1 -10 -4 -10 -6
0 -11 5 -11 10 0 6 2 10 4 10 3 0 8 -4 11 -10z m35 0 c0 -5 -4 -10 -10 -10 -5
0 -10 5 -10 10 0 6 5 10 10 10 6 0 10 -4 10 -10z m802 -22 c-9 -9 -12 -7 -12
12 0 19 3 21 12 12 9 -9 9 -15 0 -24z m-657 -3 c0 -10 -6 -20 -12 -22 -7 -3
-13 3 -13 12 0 9 -4 14 -9 11 -5 -3 -14 1 -21 9 -11 13 -8 15 21 11 25 -2 34
-8 34 -21z m545 16 c0 -5 -7 -11 -15 -15 -15 -5 -20 5 -8 17 9 10 23 9 23 -2z
m190 -5 c0 -8 -4 -17 -9 -21 -12 -7 -24 12 -16 25 9 15 25 12 25 -4z m-889
-46 c13 -7 19 -7 19 0 0 14 47 13 56 -1 3 -6 0 -16 -7 -21 -11 -7 -11 -11 -1
-15 19 -7 14 -23 -8 -23 -13 0 -18 5 -14 15 4 8 1 15 -5 15 -6 0 -11 -6 -11
-12 0 -10 -2 -10 -9 0 -7 11 -9 11 -14 -1 -10 -28 -47 -9 -47 24 0 31 10 35
41 19z m557 3 c-10 -2 -18 -11 -18 -19 0 -8 -8 -15 -17 -15 -27 -3 -47 -6 -55
-9 -20 -7 -75 -5 -91 2 -21 11 -13 30 9 21 9 -3 19 0 24 6 6 10 12 10 29 -1
18 -11 23 -11 32 2 8 11 12 12 16 3 6 -17 21 -16 39 2 9 8 23 14 32 14 15 -1
15 -2 0 -6z m-348 -35 c0 -5 -13 -8 -30 -8 -16 0 -30 5 -30 10 0 6 9 10 20 10
11 0 20 6 20 13 0 13 20 -12 20 -25z m430 22 c0 -5 -8 -10 -17 -10 -15 0 -16
2 -3 10 19 12 20 12 20 0z m-380 -20 c0 -5 -5 -10 -11 -10 -5 0 -7 5 -4 10 3
6 8 10 11 10 2 0 4 -4 4 -10z m1210 -76 c0 -2 -7 -4 -15 -4 -8 0 -15 4 -15 10
0 5 7 7 15 4 8 -4 15 -8 15 -10z m-508 -16 c-7 -7 -12 -8 -12 -2 0 14 12 26
19 19 2 -3 -1 -11 -7 -17z m88 2 c0 -5 -4 -10 -10 -10 -5 0 -10 5 -10 10 0 6
5 10 10 10 6 0 10 -4 10 -10z m200 6 c0 -3 -4 -8 -10 -11 -5 -3 -10 -1 -10 4
0 6 5 11 10 11 6 0 10 -2 10 -4z m110 -5 c0 -11 -35 -41 -48 -41 -14 0 -41 27
-42 41 0 3 20 5 45 5 25 -1 45 -3 45 -5z m270 -7 c0 -2 -12 -4 -27 -4 -21 0
-24 3 -14 9 13 8 41 5 41 -5z m-1545 -13 c7 -12 -12 -24 -25 -16 -11 7 -4 25
10 25 5 0 11 -4 15 -9z m1475 -24 c0 -5 -4 -5 -10 -2 -5 3 -10 14 -10 23 0 15
2 15 10 2 5 -8 10 -19 10 -23z m-790 7 c0 -2 -9 -4 -21 -4 -11 0 -18 4 -14 10
5 8 35 3 35 -6z m178 -9 c-17 -8 -27 -9 -37 -1 -11 9 -8 12 15 17 39 7 51 -1
22 -16z m-591 9 c-3 -3 -12 -4 -19 -1 -8 3 -5 6 6 6 11 1 17 -2 13 -5z m1293
-15 c0 -6 -4 -7 -10 -4 -5 3 -10 11 -10 16 0 6 5 7 10 4 6 -3 10 -11 10 -16z
m-120 -23 c-13 -13 -35 7 -25 24 5 8 11 8 21 -1 10 -8 12 -15 4 -23z m-1380
16 c0 -5 -8 -26 -18 -46 -15 -31 -20 -35 -26 -21 -4 11 0 25 9 35 8 9 15 22
15 28 0 7 5 12 10 12 6 0 10 -4 10 -8z m170 -17 c17 -21 5 -31 -15 -12 -8 9
-15 18 -15 21 0 11 18 6 30 -9z m1150 5 c0 -5 -2 -10 -4 -10 -3 0 -8 5 -11 10
-3 6 -1 10 4 10 6 0 11 -4 11 -10z m-1080 -50 c0 -5 -2 -10 -4 -10 -3 0 -8 5
-11 10 -3 6 -1 10 4 10 6 0 11 -4 11 -10z m650 -92 c0 -5 -11 -8 -25 -8 -14 0
-25 -4 -25 -10 0 -5 -4 -10 -10 -10 -5 0 -10 7 -10 15 0 8 5 15 11 15 6 0 18
7 26 16 13 13 17 13 24 2 5 -7 9 -16 9 -20z m-363 -4 c5 -15 -20 -24 -37 -14
-7 4 -9 13 -5 19 8 14 37 11 42 -5z m181 -19 c-4 -11 -28 -16 -28 -6 0 12 13
22 23 18 5 -1 7 -7 5 -12z m-978 -15 c0 -5 -2 -10 -4 -10 -3 0 -8 5 -11 10 -3
6 -1 10 4 10 6 0 11 -4 11 -10z m940 6 c0 -3 -4 -8 -10 -11 -5 -3 -10 -1 -10
4 0 6 5 11 10 11 6 0 10 -2 10 -4z m610 -27 c0 -5 -7 -9 -15 -9 -9 0 -12 6 -9
15 6 15 24 11 24 -6z m-1840 -10 c0 -5 -7 -9 -15 -9 -8 0 -15 7 -15 15 0 9 6
12 15 9 8 -4 15 -10 15 -15z m46 -47 c-18 -18 -31 -10 -23 12 4 10 13 13 22 9
15 -5 15 -7 1 -21z m54 14 c0 -3 -4 -8 -10 -11 -5 -3 -10 -1 -10 4 0 6 5 11
10 11 6 0 10 -2 10 -4z m2160 -66 c0 -5 -4 -10 -10 -10 -5 0 -10 5 -10 10 0 6
5 10 10 10 6 0 10 -4 10 -10z m-845 -20 c19 -21 15 -24 -22 -14 -13 4 -23 13
-23 20 0 20 24 17 45 -6z m427 -2 c-18 -5 -32 -15 -32 -23 0 -8 -5 -15 -11
-15 -6 0 -8 9 -4 20 6 18 3 19 -27 13 -18 -3 -30 -3 -26 1 3 5 28 10 54 12 27
3 50 7 52 9 3 3 10 1 16 -2 6 -4 -4 -11 -22 -15z m198 14 c0 -15 -11 -21 -27
-15 -12 5 -12 7 -1 14 17 11 28 11 28 1z m-752 -14 c-4 -12 -78 -19 -78 -7 0
13 15 19 48 19 22 0 32 -4 30 -12z m247 -18 c0 -9 -11 -16 -27 -18 -27 -3 -38
14 -21 32 12 12 48 2 48 -14z m712 14 c-3 -3 -12 -4 -19 -1 -8 3 -5 6 6 6 11
1 17 -2 13 -5z m-1337 -8 c0 -3 -4 -8 -10 -11 -5 -3 -10 -1 -10 4 0 6 5 11 10
11 6 0 10 -2 10 -4z m257 -28 c-3 -7 -5 -2 -5 12 0 14 2 19 5 13 2 -7 2 -19 0
-25z m496 25 c-7 -2 -19 -2 -25 0 -7 3 -2 5 12 5 14 0 19 -2 13 -5z m-1418
-13 c3 -5 1 -10 -4 -10 -6 0 -11 5 -11 10 0 6 2 10 4 10 3 0 8 -4 11 -10z
m-97 -14 c7 -8 -31 -36 -40 -30 -4 3 -13 14 -19 25 -10 19 -8 20 21 15 18 -2
35 -7 38 -10z m1111 -11 c6 3 17 3 23 -1 9 -6 5 -10 -12 -14 -29 -8 -50 5 -50
29 1 14 3 13 15 -3 7 -10 18 -15 24 -11z m-1209 -1 c0 -8 -4 -12 -10 -9 -5 3
-10 10 -10 16 0 5 5 9 10 9 6 0 10 -7 10 -16z m1785 -42 c0 -18 -20 -15 -23 4
-3 10 1 15 10 12 7 -3 13 -10 13 -16z m175 0 c0 -14 -11 -21 -26 -15 -21 8
-17 23 6 23 11 0 20 -4 20 -8z m-830 -12 c13 -8 13 -10 -2 -10 -9 0 -21 -8
-27 -17 -5 -10 -12 -15 -16 -12 -3 4 1 13 9 22 8 8 12 17 9 21 -10 10 10 7 27
-4z m-1033 -32 c-3 -8 -6 -5 -6 6 -1 11 2 17 5 13 3 -3 4 -12 1 -19z m1233
-68 c0 -5 -4 -10 -10 -10 -5 0 -10 5 -10 10 0 6 5 10 10 10 6 0 10 -4 10 -10z
m600 -30 c-19 -13 -30 -13 -30 0 0 6 10 10 23 10 18 0 19 -2 7 -10z m-1780
-35 c0 -8 -7 -15 -15 -15 -16 0 -20 12 -8 23 11 12 23 8 23 -8z m1480 -20 c-7
-9 -15 -13 -17 -11 -7 7 7 26 19 26 6 0 6 -6 -2 -15z m-505 -5 c3 -5 1 -10 -4
-10 -6 0 -11 5 -11 10 0 6 2 10 4 10 3 0 8 -4 11 -10z m730 0 c-3 -5 -10 -10
-16 -10 -5 0 -9 5 -9 10 0 6 7 10 16 10 8 0 12 -4 9 -10z m-1730 -10 c-3 -5
-10 -10 -16 -10 -5 0 -9 5 -9 10 0 6 7 10 16 10 8 0 12 -4 9 -10z m925 0 c0
-5 -4 -10 -9 -10 -6 0 -13 5 -16 10 -3 6 1 10 9 10 9 0 16 -4 16 -10z m393 -5
c1 -5 -6 -11 -15 -13 -11 -2 -18 3 -18 13 0 17 30 18 33 0z m-913 -10 c0 -8
-4 -15 -10 -15 -5 0 -10 7 -10 15 0 8 5 15 10 15 6 0 10 -7 10 -15z m1018 4
c-5 -14 -21 -14 -26 0 -2 6 4 11 13 11 9 0 15 -5 13 -11z"/>
<path d="M377 1553 c-12 -11 -8 -23 8 -23 8 0 15 7 15 15 0 16 -12 20 -23 8z"/>
<path d="M2265 1520 c28 -12 37 -12 30 0 -3 6 -16 10 -28 9 -21 0 -21 -1 -2
-9z"/>
<path d="M305 1470 c3 -5 10 -10 16 -10 5 0 9 5 9 10 0 6 -7 10 -16 10 -8 0
-12 -4 -9 -10z"/>
<path d="M255 1430 c-3 -5 -1 -10 4 -10 6 0 11 5 11 10 0 6 -2 10 -4 10 -3 0
-8 -4 -11 -10z"/>
<path d="M280 1350 c0 -5 5 -10 10 -10 6 0 10 5 10 10 0 6 -4 10 -10 10 -5 0
-10 -4 -10 -10z"/>
<path d="M1106 1351 c-4 -7 -5 -15 -2 -18 9 -9 19 4 14 18 -4 11 -6 11 -12 0z"/>
<path d="M1632 1347 c-32 -6 -42 -13 -40 -24 4 -21 57 -36 75 -22 16 14 43 4
43 -15 0 -10 6 -13 15 -10 21 8 19 60 -2 69 -27 11 -44 12 -91 2z"/>
<path d="M1280 1320 c0 -11 5 -20 10 -20 6 0 10 9 10 20 0 11 -4 20 -10 20 -5
0 -10 -9 -10 -20z"/>
<path d="M260 1320 c0 -5 7 -10 16 -10 8 0 12 5 9 10 -3 6 -10 10 -16 10 -5 0
-9 -4 -9 -10z"/>
<path d="M1660 1259 c0 -5 5 -7 10 -4 6 3 10 8 10 11 0 2 -4 4 -10 4 -5 0 -10
-5 -10 -11z"/>
<path d="M335 1250 c-3 -5 1 -10 10 -10 9 0 13 5 10 10 -3 6 -8 10 -10 10 -2
0 -7 -4 -10 -10z"/>
<path d="M350 1220 l-25 -20 38 0 c31 0 38 3 35 17 -4 24 -20 25 -48 3z"/>
<path d="M415 1210 c-3 -5 1 -10 9 -10 9 0 16 5 16 10 0 6 -4 10 -9 10 -6 0
-13 -4 -16 -10z"/>
<path d="M1900 1111 c0 -5 5 -13 10 -16 6 -3 10 -2 10 4 0 5 -4 13 -10 16 -5
3 -10 2 -10 -4z"/>
<path d="M316 1071 c-4 -7 -5 -15 -2 -18 9 -9 19 4 14 18 -4 11 -6 11 -12 0z"/>
<path d="M1860 1028 c0 -4 -7 -8 -15 -8 -33 0 -12 -44 25 -52 14 -3 32 -8 40
-12 8 -3 22 -1 30 4 12 8 13 13 2 27 -7 10 -15 25 -18 34 -6 16 -64 23 -64 7z"/>
<path d="M180 955 c0 -9 5 -15 11 -13 6 2 11 8 11 13 0 5 -5 11 -11 13 -6 2
-11 -4 -11 -13z"/>
<path d="M1426 953 c-11 -11 -6 -23 9 -23 8 0 15 4 15 9 0 13 -16 22 -24 14z"/>
<path d="M1460 940 c0 -5 5 -10 10 -10 6 0 10 5 10 10 0 6 -4 10 -10 10 -5 0
-10 -4 -10 -10z"/>
<path d="M126 924 c-8 -20 1 -34 20 -34 18 0 18 24 0 39 -11 9 -15 8 -20 -5z"/>
<path d="M1870 930 c0 -5 7 -7 15 -4 8 4 15 8 15 10 0 2 -7 4 -15 4 -8 0 -15
-4 -15 -10z"/>
<path d="M130 774 c0 -14 3 -14 15 -4 8 7 15 14 15 16 0 2 -7 4 -15 4 -8 0
-15 -7 -15 -16z"/>
<path d="M364 726 c-10 -8 -16 -18 -11 -22 4 -4 7 -2 7 4 0 7 7 12 15 12 8 0
15 5 15 10 0 13 -3 13 -26 -4z"/>
<path d="M315 671 c-18 -7 -17 -8 6 -13 29 -5 49 0 49 13 0 11 -27 11 -55 0z"/>
<path d="M466 654 c-4 -10 -1 -14 6 -12 15 5 23 28 10 28 -5 0 -13 -7 -16 -16z"/>
<path d="M130 595 c-10 -12 -10 -15 4 -15 9 0 16 7 16 15 0 8 -2 15 -4 15 -2
0 -9 -7 -16 -15z"/>
<path d="M2230 600 c0 -5 5 -10 11 -10 5 0 7 5 4 10 -3 6 -8 10 -11 10 -2 0
-4 -4 -4 -10z"/>
<path d="M78 583 c7 -3 16 -2 19 1 4 3 -2 6 -13 5 -11 0 -14 -3 -6 -6z"/>
<path d="M2420 313 c0 -15 74 -115 78 -105 4 13 -57 112 -69 112 -5 0 -9 -3
-9 -7z"/>
<path d="M2790 151 c0 -5 5 -13 10 -16 6 -3 10 -2 10 4 0 5 -4 13 -10 16 -5 3
-10 2 -10 -4z"/>
<path d="M2600 38 c0 -4 11 -8 25 -8 14 0 25 4 25 10 0 5 -11 9 -25 8 -14 -1
-25 -6 -25 -10z"/>
<path d="M2880 30 c0 -5 5 -10 10 -10 6 0 10 5 10 10 0 6 -4 10 -10 10 -5 0
-10 -4 -10 -10z"/>
<path d="M2630 10 c0 -5 5 -10 10 -10 6 0 10 5 10 10 0 6 -4 10 -10 10 -5 0
-10 -4 -10 -10z"/>
</g>
</svg>
